<svg width="12" height="12" viewBox="0 0 12 12" fill="none" xmlns="http://www.w3.org/2000/svg">
<path d="M10.3816 6.25426C10.5785 5.9941 10.6875 5.67535 10.6875 5.34371C10.6875 4.81754 10.3934 4.31949 9.91992 4.04176C9.79804 3.97027 9.65927 3.93264 9.51797 3.93277H6.70781L6.77813 2.49254C6.79453 2.14449 6.67148 1.81402 6.43242 1.56207C6.3151 1.43788 6.17356 1.33908 6.01654 1.27176C5.85953 1.20443 5.69037 1.17003 5.51953 1.17066C4.91016 1.17066 4.37109 1.58082 4.20938 2.16793L3.20273 5.81246H3.19922V10.8281H8.73398C8.8418 10.8281 8.94727 10.807 9.04453 10.7648C9.60234 10.5269 9.96211 9.98199 9.96211 9.3773C9.96211 9.22965 9.94102 9.08434 9.89883 8.94371C10.0957 8.68355 10.2047 8.3648 10.2047 8.03316C10.2047 7.88551 10.1836 7.74019 10.1414 7.59957C10.3383 7.33941 10.4473 7.02066 10.4473 6.68902C10.4449 6.54137 10.4238 6.39488 10.3816 6.25426ZM1.3125 6.18746V10.4531C1.3125 10.6605 1.48008 10.8281 1.6875 10.8281H2.44922V5.81246H1.6875C1.48008 5.81246 1.3125 5.98004 1.3125 6.18746Z" fill="#3E8BFF"/>
</svg>
