<?xml version="1.0" standalone="no"?>
<!DOCTYPE svg PUBLIC "-//W3C//DTD SVG 20010904//EN"
 "http://www.w3.org/TR/2001/REC-SVG-20010904/DTD/svg10.dtd">
<svg version="1.0" xmlns="http://www.w3.org/2000/svg"
 width="700.000000pt" height="700.000000pt" viewBox="0 0 700.000000 700.000000"
 preserveAspectRatio="xMidYMid meet">
<metadata>
Created by potrace 1.14, written by Peter Selinger 2001-2017
</metadata>
<g transform="translate(0.000000,700.000000) scale(0.100000,-0.100000)"
fill="#000000" stroke="none">
<path d="M2340 6825 c-7 -8 -16 -12 -21 -9 -20 12 -53 13 -68 1 -12 -9 -13 -9
-7 1 4 6 3 12 -1 12 -5 0 -15 -6 -22 -12 -10 -10 -12 -10 -7 -1 5 9 0 10 -24
2 -16 -6 -27 -15 -24 -20 3 -5 -3 -6 -12 -2 -16 6 -15 7 2 20 10 7 14 13 8 13
-15 0 -30 -14 -37 -33 -4 -10 -11 -15 -17 -12 -5 3 -19 8 -31 10 -17 3 -19 2
-9 -10 9 -11 7 -12 -11 -8 -15 4 -20 2 -15 -5 3 -6 2 -13 -3 -16 -5 -4 -13 -1
-17 5 -5 8 -3 9 6 4 9 -6 11 -4 5 5 -6 10 -11 9 -21 -4 -9 -13 -13 -14 -17 -4
-4 9 -6 7 -6 -4 -1 -9 -6 -20 -13 -24 -7 -4 -8 -3 -4 4 4 7 1 12 -8 12 -8 0
-18 -5 -22 -12 -4 -6 -3 -8 3 -5 5 3 10 0 10 -8 0 -15 -18 -16 -29 0 -5 6 -8
3 -8 -7 0 -12 -5 -15 -17 -11 -12 5 -14 3 -8 -7 6 -10 3 -12 -13 -8 -13 4 -19
2 -16 -6 2 -6 -13 -20 -33 -31 -24 -12 -39 -28 -41 -42 -2 -14 -12 -25 -27
-29 -15 -4 -22 -11 -18 -20 3 -9 -2 -14 -17 -14 -19 0 -20 -2 -10 -15 11 -13
10 -14 -4 -9 -11 4 -19 -1 -25 -17 -5 -13 -6 -28 -3 -33 3 -5 0 -6 -6 -2 -7 4
-12 2 -12 -4 0 -6 -5 -8 -12 -4 -9 5 -8 2 1 -9 8 -10 11 -20 7 -24 -3 -3 -6
-1 -6 5 0 7 -4 12 -10 12 -5 0 -7 -7 -4 -15 4 -8 1 -15 -5 -15 -6 0 -10 -5 -9
-12 2 -7 -2 -12 -9 -13 -6 0 -15 -4 -20 -9 -4 -5 -3 -6 4 -2 6 3 14 2 18 -4 3
-5 0 -10 -8 -10 -8 0 -19 -10 -26 -22 -11 -23 -11 -23 -5 2 6 22 5 23 -10 11
-14 -12 -16 -12 -11 1 5 12 0 14 -20 10 -17 -3 -25 0 -23 8 2 7 -7 13 -19 15
-13 1 -20 -3 -17 -9 3 -6 -2 -2 -11 9 -18 22 -24 23 -36 3 -5 -8 -9 -9 -9 -2
0 7 -7 15 -16 18 -8 3 -13 2 -10 -3 3 -4 -10 -6 -29 -4 -23 2 -35 -1 -35 -8 0
-7 -3 -9 -6 -6 -4 4 -1 13 6 22 15 18 -1 20 -18 3 -16 -16 -16 4 1 22 10 12 9
12 -3 3 -17 -11 -85 -11 -112 1 -12 5 -18 4 -18 -4 0 -6 3 -9 8 -6 4 2 18 -2
32 -9 24 -13 24 -14 3 -12 -13 1 -23 4 -23 7 0 4 -7 7 -15 7 -9 0 -14 -6 -11
-14 4 -8 1 -11 -5 -8 -6 4 -8 14 -5 22 3 8 2 12 -3 8 -5 -3 -11 0 -13 7 -3 7
-7 5 -11 -6 -5 -11 -3 -15 5 -10 7 4 8 3 4 -4 -4 -6 -14 -8 -23 -5 -9 4 -14 2
-10 -3 3 -5 -3 -10 -13 -10 -10 0 -16 6 -13 12 2 7 -1 15 -8 20 -7 4 -10 3 -6
-2 3 -6 2 -16 -4 -24 -6 -10 -9 -11 -9 -2 0 6 -5 12 -11 12 -5 0 -7 -6 -3 -12
5 -9 2 -9 -9 1 -15 12 -17 11 -17 -5 0 -12 -3 -15 -8 -8 -11 17 -91 12 -84 -5
4 -11 1 -11 -19 -1 -21 12 -23 12 -11 -3 11 -13 10 -15 -12 -13 -15 2 -26 -1
-26 -5 0 -5 -5 -9 -11 -9 -5 0 -7 6 -4 13 4 6 0 4 -8 -5 -16 -20 -32 -25 -21
-6 4 7 3 8 -5 4 -6 -4 -8 -12 -5 -18 4 -6 -4 -8 -19 -6 -18 2 -33 -6 -53 -27
-17 -19 -29 -25 -32 -17 -2 6 -8 12 -13 12 -6 0 -7 -4 -4 -10 3 -5 1 -10 -4
-10 -6 0 -10 -5 -9 -12 2 -7 -7 -13 -19 -14 -40 -3 -42 -4 -37 -17 3 -8 -6
-18 -21 -25 -15 -7 -24 -8 -20 -3 3 5 0 13 -7 17 -7 4 -10 4 -6 -1 12 -12 -12
-47 -28 -41 -8 3 -14 1 -14 -4 0 -21 -48 -60 -66 -54 -15 5 -16 4 -5 -4 12 -9
12 -14 -3 -37 -10 -15 -20 -24 -23 -21 -4 3 -13 -3 -20 -14 -8 -11 -19 -18
-24 -15 -5 3 -6 -1 -3 -9 4 -10 -3 -20 -20 -27 -21 -10 -24 -15 -15 -32 8 -14
8 -18 0 -13 -6 4 -14 0 -17 -8 -3 -9 -10 -14 -14 -11 -4 3 -11 -3 -14 -12 -4
-9 -1 -20 6 -25 10 -6 10 -8 1 -8 -19 0 -16 -20 5 -37 16 -14 16 -14 -1 -9
-19 6 -16 -5 11 -36 12 -15 18 -16 30 -5 13 10 15 9 9 -7 -6 -16 -5 -17 8 -6
12 10 15 10 15 -3 0 -9 4 -18 9 -21 5 -3 8 2 7 11 -1 13 9 17 42 18 23 2 44
-1 47 -5 2 -4 -7 -6 -20 -4 -15 1 -23 -2 -19 -8 3 -5 12 -7 20 -4 8 3 14 0 14
-7 0 -9 3 -8 9 1 10 17 22 17 32 1 6 -10 11 -6 18 14 13 35 21 35 15 0 -5 -27
-4 -27 10 -8 10 14 26 20 55 20 23 1 41 -3 41 -8 0 -4 5 -5 10 -2 6 4 7 11 4
17 -4 7 -2 8 5 4 6 -4 9 -11 6 -16 -3 -4 2 -11 11 -14 21 -8 24 -8 24 5 0 5
-4 7 -10 4 -5 -3 -10 -2 -10 4 0 18 18 21 26 3 4 -9 6 -21 5 -25 -1 -5 3 -6 8
-2 6 3 8 13 5 23 -3 9 1 7 8 -6 8 -12 16 -21 19 -20 2 2 -3 -4 -11 -13 -8 -9
-19 -14 -23 -12 -5 3 -11 -4 -14 -16 -3 -11 -9 -18 -14 -15 -5 3 -9 -2 -9 -11
0 -9 -5 -13 -10 -10 -15 9 -40 -14 -33 -31 3 -8 0 -14 -6 -14 -6 0 -11 5 -11
11 0 5 -5 7 -11 4 -6 -5 -4 -12 8 -21 16 -13 16 -14 1 -8 -17 6 -23 -5 -19
-29 1 -5 -3 -6 -9 -2 -6 3 -8 10 -5 15 3 5 1 11 -4 15 -6 3 -8 -4 -6 -15 2
-12 -2 -23 -10 -27 -8 -3 -12 -9 -9 -15 3 -5 -2 -8 -11 -6 -12 2 -19 -5 -21
-20 -3 -16 0 -21 8 -16 7 4 8 3 4 -4 -4 -6 -12 -9 -19 -6 -19 7 -52 -32 -36
-42 8 -5 10 -3 4 6 -5 9 -4 11 4 6 6 -4 9 -12 5 -17 -3 -5 -10 -7 -15 -4 -5 4
-9 1 -9 -5 0 -6 -4 -9 -9 -6 -4 3 -8 -4 -7 -17 1 -13 -5 -22 -14 -22 -8 0 -16
-10 -18 -23 -2 -13 -8 -20 -14 -16 -7 5 -9 1 -5 -9 4 -10 2 -17 -4 -17 -6 0
-8 -7 -5 -16 4 -10 2 -13 -6 -8 -8 5 -9 2 -5 -9 4 -10 2 -16 -5 -14 -7 1 -15
-11 -18 -28 -4 -19 -11 -29 -21 -27 -8 2 -11 0 -6 -4 4 -4 -1 -16 -10 -27 -11
-13 -12 -17 -4 -12 11 6 13 4 8 -9 -4 -10 -7 -20 -7 -22 0 -3 -4 -2 -10 1 -6
3 -7 -1 -4 -9 3 -9 11 -13 17 -9 6 3 7 1 3 -6 -6 -9 -11 -9 -21 -1 -11 9 -12
7 -8 -11 5 -17 3 -20 -8 -14 -12 7 -12 6 -1 -7 10 -13 10 -18 1 -24 -8 -5 -9
-3 -4 6 5 9 4 11 -4 6 -9 -6 -9 -11 0 -22 10 -12 9 -17 -1 -27 -10 -9 -11 -9
-6 1 10 18 1 15 -15 -5 -10 -11 -10 -14 -2 -9 8 4 13 1 13 -8 0 -9 -5 -16 -11
-16 -8 0 -7 -6 2 -17 8 -9 9 -14 3 -10 -7 4 -15 0 -18 -9 -3 -8 -2 -12 4 -9 6
3 10 1 10 -4 0 -6 -4 -11 -10 -11 -5 0 -10 -5 -10 -11 0 -5 5 -7 12 -3 7 5 8
3 2 -7 -13 -22 -15 -47 -3 -54 16 -10 -9 -35 -29 -29 -14 5 -13 2 2 -10 20
-16 20 -16 0 -16 -16 0 -17 -2 -4 -10 12 -8 12 -10 -5 -10 -15 0 -17 -2 -6 -9
8 -5 11 -16 8 -24 -3 -8 0 -20 6 -27 9 -10 9 -11 -2 -5 -11 6 -13 4 -8 -8 3
-9 1 -18 -6 -20 -9 -3 -8 -8 2 -20 11 -14 11 -17 0 -17 -11 0 -11 -2 1 -10 12
-8 12 -10 1 -10 -8 0 -11 -3 -8 -7 4 -3 1 -13 -6 -21 -11 -13 -9 -14 13 -2 23
12 24 12 11 -3 -7 -10 -10 -17 -6 -17 4 0 2 -7 -5 -15 -7 -8 -8 -15 -4 -15 5
0 10 -14 10 -31 1 -24 -2 -29 -14 -24 -12 4 -12 1 3 -15 16 -18 17 -23 5 -30
-13 -8 -13 -10 -1 -10 11 0 12 -3 4 -11 -12 -12 -6 -42 7 -34 5 3 6 -4 3 -15
-3 -11 -10 -17 -15 -14 -6 4 -2 -5 7 -19 9 -15 13 -32 9 -39 -4 -7 -4 -10 1
-6 4 4 13 2 21 -5 38 -34 45 -37 76 -32 18 4 40 13 49 21 8 8 19 11 22 7 4 -3
7 -1 7 5 0 5 -6 13 -13 15 -9 4 -9 6 1 6 6 1 12 9 12 19 0 14 2 15 10 2 8 -13
10 -12 10 3 0 9 6 17 13 17 8 0 7 4 -3 10 -13 8 -13 10 2 10 9 0 20 5 24 12 4
7 3 8 -4 4 -7 -4 -12 -2 -12 3 0 6 6 11 13 11 8 0 13 10 13 23 -1 16 4 21 17
19 9 -2 17 2 17 8 0 5 -5 10 -12 10 -9 0 -9 3 0 12 8 8 15 8 29 -3 16 -12 17
-12 6 1 -8 10 -9 21 -3 30 6 8 10 11 11 5 0 -5 4 1 8 15 4 14 13 24 19 23 7
-2 14 8 18 22 3 14 10 25 15 25 5 0 9 7 9 16 0 11 5 14 16 10 14 -5 15 -4 5 8
-9 11 -9 16 0 22 8 5 9 3 4 -5 -5 -9 -2 -9 14 0 14 10 17 15 8 21 -8 5 -6 8 6
8 11 0 15 4 11 12 -5 8 -1 9 12 4 15 -6 17 -5 7 5 -18 18 -16 34 2 19 14 -12
20 -7 15 15 -1 6 2 6 7 2 4 -5 8 -14 8 -20 1 -7 7 -11 14 -9 7 1 10 -2 6 -8
-3 -6 -10 -8 -15 -5 -5 3 -11 1 -15 -5 -3 -5 -1 -10 6 -10 7 0 9 -3 6 -7 -4
-3 -1 -13 6 -21 11 -13 9 -14 -13 -2 -21 11 -23 11 -14 -1 6 -8 10 -23 8 -34
-1 -10 2 -25 7 -31 7 -8 6 -14 -3 -18 -10 -5 -10 -7 0 -12 6 -3 12 -10 12 -15
0 -6 -4 -8 -8 -5 -5 3 -9 -1 -9 -9 0 -8 5 -15 11 -15 6 0 4 -5 -4 -10 -13 -8
-12 -10 3 -10 16 0 16 -3 4 -27 -18 -38 -16 -59 7 -55 11 2 15 -1 11 -7 -3 -6
0 -11 7 -11 9 0 9 -3 -2 -10 -8 -5 -11 -10 -6 -10 5 0 2 -8 -5 -17 -12 -14
-12 -16 0 -8 11 6 13 3 8 -14 -7 -29 2 -53 17 -44 6 3 8 3 4 -2 -4 -4 -3 -17
3 -27 8 -15 8 -23 -2 -32 -9 -8 -10 -8 -5 1 8 14 -3 43 -16 43 -6 0 -6 -5 1
-14 6 -8 11 -18 10 -22 -4 -15 13 -44 21 -39 5 3 12 0 16 -6 4 -7 3 -9 -4 -5
-6 3 -13 2 -17 -4 -3 -5 -1 -10 6 -10 7 0 10 -11 7 -30 -4 -26 -2 -28 11 -18
9 7 13 8 8 3 -4 -4 1 -18 10 -29 10 -12 11 -15 3 -8 -8 6 -18 12 -24 12 -5 0
1 -9 13 -19 16 -14 18 -21 9 -24 -11 -4 -11 -6 0 -6 10 -1 10 -6 1 -23 -11
-22 -11 -22 6 -8 16 14 17 13 11 -8 -8 -23 9 -32 17 -9 3 6 3 -5 2 -25 -3 -29
0 -36 11 -31 10 3 12 0 8 -10 -9 -25 35 -94 51 -79 4 4 2 -4 -5 -17 -9 -17 -9
-21 0 -16 7 4 10 1 8 -10 -2 -10 4 -20 12 -22 13 -4 13 -3 0 7 -13 10 -13 11
0 7 8 -2 14 -12 12 -22 -2 -9 0 -15 5 -12 5 3 10 -3 11 -14 4 -42 6 -48 14
-43 5 3 5 10 2 16 -4 7 -2 8 5 4 6 -4 9 -12 6 -17 -4 -5 -1 -9 6 -9 10 0 10
-3 1 -12 -7 -7 -12 -17 -12 -22 0 -6 5 -4 10 4 7 11 10 11 10 2 0 -7 5 -10 12
-6 7 5 9 0 6 -14 -5 -16 -2 -20 14 -17 19 4 19 3 5 -13 -15 -16 -15 -18 5 -19
11 -1 26 -7 32 -14 8 -9 6 -10 -8 -5 -20 7 -20 7 -1 -16 11 -13 22 -25 24 -28
2 -3 1 3 -2 13 -4 12 -3 16 4 11 6 -3 8 -15 6 -26 -5 -16 -3 -17 10 -6 14 11
15 10 9 -9 -7 -21 6 -37 29 -38 6 0 10 -7 10 -15 0 -8 10 -19 23 -25 12 -5 22
-16 22 -23 0 -7 5 -10 10 -7 5 3 10 1 10 -5 0 -6 5 -8 13 -4 9 6 9 5 0 -8 -15
-17 -7 -29 13 -21 12 5 19 -7 15 -29 0 -5 6 -8 15 -8 9 0 12 5 8 12 -4 7 -3 8
5 4 8 -6 9 -12 2 -20 -13 -15 -4 -27 14 -20 7 3 16 0 21 -7 5 -8 3 -10 -7 -4
-12 8 -12 6 0 -8 15 -19 36 -23 25 -5 -4 7 -3 8 4 4 6 -4 8 -14 5 -23 -4 -10
-2 -14 4 -10 6 4 13 0 16 -8 4 -10 1 -12 -11 -9 -9 2 -7 -1 5 -7 21 -11 22
-13 5 -26 -9 -8 -12 -12 -6 -9 7 3 15 -1 18 -10 4 -9 2 -13 -5 -8 -8 4 -9 -1
-4 -16 5 -14 3 -20 -3 -16 -12 7 -10 -20 3 -31 4 -4 5 -3 2 3 -3 6 0 11 8 11
8 0 11 -5 7 -11 -11 -18 -11 -40 -1 -52 6 -8 5 -17 -5 -27 -8 -8 -12 -17 -9
-21 9 -9 10 -55 1 -50 -3 2 -9 0 -13 -6 -6 -9 8 -15 29 -11 5 1 4 -5 -4 -13
-9 -12 -10 -19 -1 -30 9 -11 9 -17 -3 -28 -12 -11 -12 -15 2 -32 10 -11 11
-16 4 -12 -9 6 -12 -3 -9 -36 1 -24 6 -48 10 -55 4 -6 1 -18 -7 -26 -8 -8 -12
-17 -9 -21 9 -9 10 -55 1 -50 -3 2 -9 0 -13 -6 -6 -9 8 -15 29 -11 5 1 4 -5
-4 -13 -9 -12 -10 -19 -1 -30 9 -11 9 -17 -3 -28 -12 -11 -12 -15 2 -32 10
-11 11 -16 4 -12 -9 6 -12 -3 -9 -36 1 -24 6 -48 10 -55 4 -6 1 -18 -7 -26 -8
-8 -12 -17 -9 -21 9 -9 10 -55 1 -50 -3 2 -9 0 -13 -6 -6 -9 8 -15 29 -11 5 1
4 -5 -4 -13 -9 -12 -10 -19 -1 -30 9 -11 9 -17 -3 -28 -12 -11 -12 -15 2 -32
10 -11 11 -16 5 -12 -9 5 -13 0 -13 -14 0 -14 -4 -19 -12 -15 -7 4 -6 1 2 -7
17 -15 26 -43 11 -34 -5 4 -12 2 -16 -4 -3 -5 -1 -10 6 -10 7 0 9 -10 7 -24
-4 -17 -1 -23 8 -19 10 4 13 -5 10 -31 -2 -27 1 -33 10 -25 9 7 12 5 9 -8 -1
-10 -8 -17 -14 -16 -18 5 -12 -4 17 -23 21 -14 24 -14 14 -2 -11 13 -11 18 0
24 7 4 10 3 5 -1 -4 -5 1 -17 10 -28 10 -11 12 -17 6 -13 -17 10 -16 -2 1 -19
7 -8 17 -11 21 -7 4 4 2 -4 -5 -18 -7 -14 -9 -22 -5 -18 4 4 14 0 22 -10 8 -9
11 -11 7 -3 -4 9 -3 12 4 7 6 -4 9 -13 6 -21 -3 -7 0 -23 6 -35 7 -13 8 -20 2
-16 -6 3 -13 0 -16 -6 -3 -7 -4 -4 -1 7 2 11 1 26 -4 34 -6 9 -8 2 -7 -20 2
-19 7 -33 13 -32 6 1 13 -7 16 -17 3 -11 0 -20 -5 -20 -6 0 -4 -8 3 -17 8 -9
9 -14 4 -11 -6 4 -11 -2 -11 -12 0 -10 4 -16 9 -13 5 3 6 -11 3 -30 -4 -27 -2
-37 11 -41 13 -5 14 -4 3 9 -8 10 -9 15 -1 15 6 0 11 -1 11 -2 12 -74 11 -80
-2 -73 -10 6 -11 5 0 -6 16 -17 16 -32 0 -23 -10 5 -10 3 0 -7 11 -12 14 -12
22 1 6 9 10 10 10 3 0 -7 -8 -17 -17 -23 -16 -10 -15 -11 5 -7 12 3 20 1 16
-4 -3 -5 -2 -15 2 -21 5 -7 7 -27 5 -44 -2 -24 2 -33 18 -37 20 -5 22 -21 7
-46 -6 -10 -5 -12 3 -7 8 5 12 3 10 -5 -3 -27 1 -40 11 -34 5 3 10 -1 10 -11
0 -9 8 -23 18 -30 13 -11 14 -13 1 -9 -10 4 -16 0 -16 -9 0 -8 4 -13 9 -10 4
3 9 0 9 -5 2 -14 6 -29 9 -36 1 -3 3 -11 4 -17 1 -7 8 -12 15 -10 8 2 11 -5 7
-20 -3 -13 -3 -17 0 -10 3 6 10 9 15 6 6 -3 5 -12 -3 -22 -7 -9 -8 -13 -2 -9
7 4 17 0 24 -8 7 -8 16 -12 21 -9 5 3 9 0 9 -5 0 -14 -13 -14 -27 0 -8 8 -13
7 -18 -2 -5 -7 -4 -10 2 -6 13 8 36 -17 25 -28 -4 -5 -1 -4 7 0 10 6 13 4 9
-6 -3 -8 -1 -23 4 -34 8 -18 8 -18 4 3 -5 27 5 29 21 2 9 -13 9 -21 2 -25 -12
-8 7 -35 24 -35 6 0 2 7 -9 16 -18 14 -18 15 4 4 18 -9 20 -14 12 -30 -8 -16
-8 -18 5 -14 10 4 15 0 15 -11 0 -10 -5 -13 -12 -9 -7 4 -8 3 -4 -5 6 -9 11
-9 24 1 12 10 14 10 8 1 -4 -7 -2 -13 4 -13 7 0 7 -7 -1 -22 -11 -21 -11 -22
4 -9 12 9 17 10 17 2 0 -7 5 -9 13 -5 7 5 7 2 -2 -10 -12 -15 -12 -17 0 -14 8
2 13 -3 11 -11 -2 -8 3 -11 12 -8 9 4 18 1 22 -5 5 -7 2 -8 -6 -3 -10 6 -12 4
-7 -9 4 -10 7 -20 7 -22 0 -2 9 -4 21 -4 11 0 17 -4 14 -10 -3 -5 0 -10 7 -10
10 0 9 -3 -2 -11 -12 -9 -10 -10 8 -6 20 5 22 3 10 -11 -10 -12 -10 -14 0 -8
7 4 12 1 12 -8 0 -9 5 -16 11 -16 5 0 7 6 3 13 -5 8 -2 8 9 -2 9 -7 17 -22 17
-33 0 -10 4 -16 10 -13 6 3 10 1 10 -5 0 -6 5 -8 13 -4 7 5 6 0 -3 -11 -9 -11
-10 -16 -2 -11 7 4 12 2 12 -5 0 -9 4 -9 15 1 12 10 14 8 10 -8 -4 -22 19 -37
38 -25 7 3 9 3 5 -2 -5 -5 1 -15 13 -23 11 -8 18 -20 15 -28 -3 -7 0 -16 6
-20 7 -4 8 -3 4 4 -4 7 -1 12 9 12 11 0 15 -5 12 -14 -3 -8 1 -17 9 -20 9 -3
12 -11 8 -18 -6 -10 -4 -11 7 0 17 16 29 15 29 -1 0 -8 9 -22 19 -31 18 -17
20 -17 25 1 3 10 4 5 2 -10 -3 -20 0 -25 7 -18 15 15 30 14 21 -1 -5 -7 -2 -9
9 -5 12 4 14 2 10 -11 -6 -15 -5 -15 11 -3 9 8 16 10 15 5 -1 -5 -1 -15 0 -23
1 -11 4 -11 18 0 11 10 14 10 9 2 -4 -8 -2 -13 4 -13 7 0 9 -7 6 -16 -3 -8 -2
-12 3 -9 5 3 13 1 16 -5 5 -8 12 -7 23 2 10 7 14 9 10 4 -11 -14 15 -35 29
-24 9 7 15 6 19 -6 3 -9 10 -13 15 -10 5 3 9 1 9 -5 0 -5 -5 -11 -12 -13 -9
-3 -9 -6 0 -12 7 -4 12 -2 12 3 0 6 7 11 16 11 10 0 14 -6 11 -14 -4 -10 -1
-13 9 -9 7 3 14 0 14 -6 0 -6 4 -11 10 -11 5 0 7 7 3 16 -3 9 8 2 26 -15 18
-17 36 -29 42 -26 5 4 9 1 9 -4 0 -6 3 -10 8 -10 21 4 32 -2 26 -13 -6 -10 -4
-10 7 -2 23 17 66 3 53 -18 -5 -7 -2 -8 7 -2 20 12 40 14 33 3 -3 -5 -10 -6
-16 -3 -6 4 -8 2 -5 -4 4 -5 17 -8 29 -4 15 4 19 2 13 -7 -6 -10 -3 -11 16 -1
20 11 25 10 41 -11 18 -21 64 -36 51 -16 -3 5 4 6 18 1 13 -4 32 -7 42 -6 9 0
17 -4 17 -9 0 -6 -4 -8 -9 -5 -5 3 -15 -2 -22 -11 -12 -15 -12 -16 1 -8 20 13
52 17 46 7 -3 -5 1 -9 9 -9 8 0 12 4 10 8 -9 13 30 4 43 -11 8 -8 11 -10 8 -4
-11 22 22 23 39 1 9 -12 14 -15 12 -7 -3 10 2 16 13 16 10 0 17 -3 14 -7 -4
-7 23 -19 40 -18 5 0 13 -5 17 -13 5 -7 9 -8 9 -3 0 15 43 16 52 2 5 -8 8 -5
8 8 1 19 1 19 11 2 6 -10 15 -14 22 -10 17 11 31 10 39 -1 4 -6 13 -5 22 3 12
11 16 11 16 1 0 -10 3 -10 14 -1 9 8 16 8 20 2 9 -14 47 -9 42 6 -3 7 1 10 10
6 7 -3 14 -10 14 -17 0 -6 5 -4 10 4 6 10 10 11 10 3 0 -7 5 -13 11 -13 5 0 7
5 3 12 -4 7 -3 8 5 4 6 -4 19 -2 27 5 12 10 13 9 7 -7 -6 -17 -5 -17 10 -5 14
11 17 11 17 0 0 -8 6 -6 16 7 8 10 13 14 10 7 -4 -6 -2 -14 4 -18 6 -3 10 4
10 16 0 22 0 22 16 3 8 -10 13 -12 9 -4 -4 8 1 6 11 -5 14 -17 16 -17 11 -2
-4 9 -2 17 4 17 6 0 7 5 3 12 -4 7 -3 8 5 4 6 -4 8 -12 5 -18 -5 -7 -2 -8 7
-2 19 12 33 12 41 -1 5 -6 8 -3 8 7 0 9 5 20 10 23 6 4 9 1 8 -5 -2 -7 5 -14
15 -15 15 -3 16 -1 6 11 -10 13 -8 13 15 4 34 -13 39 -13 31 0 -3 6 -1 10 4
10 6 0 11 -4 11 -10 0 -5 5 -10 11 -10 6 0 8 10 5 23 -3 12 -3 16 0 9 5 -10 9
-10 22 0 9 8 13 8 9 2 -4 -7 0 -14 8 -17 10 -4 12 -1 8 11 -6 15 -5 15 10 3
15 -12 17 -12 11 4 -6 14 -4 16 12 7 10 -5 28 -6 39 -2 11 4 26 3 35 -4 13
-10 13 -9 1 7 -8 9 -11 21 -7 24 10 10 36 12 36 3 0 -4 9 -6 20 -3 11 3 20 12
20 21 0 13 3 12 14 -3 13 -19 14 -19 12 0 0 11 3 20 9 20 5 0 9 -7 7 -15 -2
-9 5 -6 15 8 13 16 22 19 29 12 8 -8 15 -6 25 7 13 17 13 17 -6 3 -15 -11 -17
-11 -8 0 7 7 23 15 35 17 13 2 25 8 26 13 2 6 8 10 13 10 6 0 8 -4 5 -8 -3 -5
1 -9 9 -9 8 0 13 3 11 6 -5 11 33 41 40 30 4 -7 10 -7 18 0 7 6 17 7 21 3 5
-4 5 -1 1 6 -6 11 -11 11 -24 0 -15 -12 -16 -11 -4 4 8 9 19 15 27 12 7 -3 21
5 30 18 11 14 15 16 12 6 -4 -10 -1 -20 5 -24 7 -4 8 -3 4 4 -4 7 -2 12 4 12
6 0 9 4 6 8 -2 4 4 14 16 21 11 7 17 8 13 2 -3 -6 -1 -11 4 -11 6 0 11 7 11
16 0 8 5 12 10 9 6 -3 10 1 10 9 0 9 5 16 11 16 5 0 7 -4 4 -10 -3 -6 1 -7 10
-4 9 4 14 13 11 20 -6 16 13 30 36 26 10 -2 26 2 35 8 13 8 14 10 3 8 -9 -2
-15 1 -15 7 0 5 6 8 14 7 7 -2 10 1 6 7 -3 7 0 8 9 5 9 -3 13 -11 9 -17 -3 -6
-1 -7 5 -3 6 3 9 15 7 25 -3 15 1 18 18 14 18 -4 20 -3 7 7 -13 10 -11 11 7 7
16 -4 20 -1 16 11 -4 9 -2 13 4 9 5 -4 19 1 29 9 10 9 14 13 8 10 -6 -3 -11 1
-11 9 0 11 5 12 21 3 18 -9 19 -9 9 3 -9 11 -6 18 15 33 14 11 22 14 18 8 -4
-7 -2 -12 5 -12 6 0 9 8 6 19 -3 14 -1 18 9 14 8 -3 14 1 14 11 0 9 5 16 11
16 5 0 7 -6 3 -12 -4 -7 5 -1 21 15 15 15 32 27 38 27 6 0 8 3 5 6 -4 3 -17 1
-30 -6 -20 -10 -21 -10 -6 3 10 8 15 17 11 21 -4 4 0 4 10 0 12 -4 17 -1 17
12 0 16 2 17 11 4 9 -12 10 -11 6 5 -3 15 1 21 15 22 11 1 16 -3 12 -9 -4 -6
-3 -8 3 -5 5 3 8 20 7 36 -2 28 0 30 18 20 15 -8 19 -8 14 0 -4 6 -1 11 6 11
9 0 9 3 -2 10 -13 9 -13 10 0 10 8 0 24 8 35 17 16 13 17 15 2 10 -24 -9 -21
-1 9 31 15 15 23 21 19 13 -6 -10 -4 -12 4 -7 9 6 9 11 0 22 -6 8 -9 17 -5 21
3 3 6 2 6 -4 0 -5 6 -10 14 -10 8 0 12 6 8 15 -3 10 -1 13 6 8 7 -4 13 -1 13
8 1 9 3 21 4 26 1 6 3 15 4 20 0 6 5 10 10 10 5 0 7 -10 5 -22 -4 -21 -4 -21
5 -3 4 11 7 34 5 50 -2 17 0 26 4 20 4 -5 13 -11 21 -13 12 -3 12 -1 0 14 -8
10 -9 15 -2 11 6 -4 14 -3 18 3 3 5 1 10 -4 10 -6 0 -11 5 -11 11 0 5 5 7 12
3 7 -5 9 -2 5 9 -4 12 -2 14 10 10 11 -4 14 -2 9 5 -4 7 -3 12 2 12 6 0 9 6 8
13 0 6 3 12 9 12 5 0 9 -4 7 -8 -1 -5 2 -6 8 -2 8 5 8 11 1 19 -6 8 -7 16 -1
22 5 5 10 22 13 38 2 16 12 35 22 42 14 10 15 14 4 14 -8 1 -3 7 11 16 l25 15
-25 -6 c-21 -5 -22 -4 -7 5 9 6 15 15 12 20 -3 5 0 12 6 16 7 4 9 3 5 -4 -3
-6 -2 -13 2 -16 5 -3 8 10 7 30 -3 30 -1 33 13 22 13 -10 14 -10 8 0 -9 16 3
74 14 67 5 -3 12 0 16 6 4 7 3 9 -3 6 -6 -4 -14 0 -17 9 -4 10 -2 13 6 8 8 -5
9 -2 5 9 -4 10 -1 17 6 17 9 0 8 3 -1 9 -10 6 -8 10 9 14 13 4 20 9 16 13 -4
4 -2 13 5 21 8 11 7 12 -6 7 -12 -5 -15 -2 -10 10 3 9 11 13 16 10 6 -4 5 3
-1 15 -11 21 -5 27 22 22 5 -1 6 3 2 9 -3 6 -10 8 -15 5 -5 -3 -12 -1 -15 5
-4 6 -3 10 2 9 27 -5 33 1 22 22 -6 12 -7 19 -1 15 5 -3 13 2 16 11 4 9 2 20
-5 23 -8 6 -8 9 0 14 6 4 11 13 11 19 0 7 -4 6 -10 -3 -5 -8 -10 -11 -10 -6 0
5 8 18 17 28 16 18 16 18 0 12 -21 -8 -22 5 -3 20 8 6 17 22 20 36 l7 25 -16
-25 -16 -25 7 24 c4 15 1 27 -7 33 -10 6 -7 7 9 3 13 -4 22 -2 22 5 0 6 5 8
12 4 7 -4 8 -3 4 4 -4 6 -14 9 -24 6 -13 -5 -14 -4 -3 4 8 6 10 15 5 23 -6 12
-5 11 9 0 15 -12 17 -12 11 2 -4 12 -1 15 14 12 18 -3 19 0 12 24 -6 20 -4 28
6 28 7 0 10 -5 7 -11 -4 -6 1 -4 11 4 11 8 14 16 7 18 -17 6 -13 22 7 22 14 0
15 2 2 10 -12 8 -12 10 -1 10 11 0 10 5 -4 20 -10 11 -13 20 -7 20 7 0 12 -4
12 -9 0 -5 7 -12 16 -15 9 -4 13 -2 8 5 -4 6 0 16 7 21 11 8 10 9 -3 4 -10 -3
-18 -1 -18 4 0 6 4 10 10 10 5 0 6 7 3 17 -5 12 -3 14 8 8 9 -5 7 -1 -3 11
-17 19 -17 21 0 38 16 18 16 19 0 13 -23 -8 -23 2 0 20 9 8 11 12 5 8 -17 -8
-17 7 0 24 6 7 8 12 2 11 -24 -5 -27 1 -9 16 18 14 18 15 -6 8 -24 -6 -24 -5
-5 9 17 13 18 18 7 43 -11 23 -11 26 1 16 11 -9 13 -8 12 8 -1 11 -5 23 -10
27 -4 5 -5 1 0 -7 5 -8 4 -12 0 -7 -11 9 -14 48 -4 41 4 -2 10 0 14 6 3 5 2
10 -3 10 -5 0 -12 11 -14 25 -3 13 -1 22 3 19 12 -7 11 3 -3 29 -10 19 -9 20
4 10 12 -11 14 -9 13 7 -1 11 -5 23 -10 27 -4 5 -5 1 0 -7 5 -8 4 -12 0 -7
-11 9 -14 48 -4 41 4 -2 10 0 14 6 3 5 1 10 -4 10 -6 0 -11 8 -11 18 0 10 -5
23 -11 29 -8 8 -4 17 13 33 l23 22 -25 -7 -25 -8 25 23 c17 15 20 20 8 16 -10
-3 -18 -3 -18 1 0 3 8 12 18 20 9 8 11 12 5 8 -7 -3 -13 -2 -13 2 0 5 6 15 13
22 10 11 10 13 0 7 -17 -9 -17 6 -1 23 11 12 10 13 -6 7 -20 -7 -20 -7 0 15
17 20 17 22 2 16 -10 -4 -18 -4 -18 0 0 3 8 12 18 20 9 8 11 12 5 8 -17 -8
-17 7 0 24 6 7 8 12 2 11 -24 -5 -27 1 -9 16 18 14 18 15 -6 9 -21 -5 -22 -4
-7 5 9 6 17 16 17 21 0 6 -4 7 -10 4 -6 -3 -7 1 -4 9 3 9 11 16 18 17 6 0 0 5
-13 10 -14 5 -31 7 -38 5 -8 -3 -16 1 -19 9 -4 8 -10 12 -15 9 -5 -3 -6 -10
-3 -16 4 -7 2 -8 -5 -4 -6 4 -9 12 -6 17 4 5 2 9 -3 9 -6 0 -12 -7 -16 -15 -6
-16 -37 -10 -33 7 1 6 -5 13 -13 15 -13 4 -13 3 0 -7 12 -10 11 -11 -7 -7 -13
3 -23 0 -23 -5 0 -6 -9 -3 -19 6 -14 13 -21 14 -27 5 -4 -8 -3 -10 4 -5 7 4
12 2 12 -3 0 -6 -7 -11 -15 -11 -8 0 -15 5 -15 12 0 6 -7 3 -16 -8 -8 -10 -13
-14 -10 -7 4 6 2 14 -4 18 -5 3 -10 1 -10 -6 0 -16 -28 8 -41 35 -10 20 -10
21 5 2 9 -11 16 -15 16 -9 0 17 -28 35 -55 36 -14 0 -25 4 -25 9 0 5 5 6 11 2
7 -4 10 -1 7 7 -3 8 -10 14 -16 14 -5 0 -14 4 -19 9 -4 5 -3 6 4 2 6 -3 14 -2
18 4 3 6 -4 10 -17 11 -14 0 -17 3 -9 6 10 4 5 10 -15 19 -22 11 -23 12 -5 8
22 -6 23 -5 10 11 -8 9 -25 28 -39 43 -14 14 -20 22 -13 18 6 -3 15 -1 19 5 4
7 3 9 -4 5 -6 -3 -17 0 -25 8 -8 8 -18 12 -23 8 -5 -4 -2 2 6 13 8 11 10 17 6
13 -5 -5 -14 2 -20 15 -7 12 -19 22 -28 22 -9 0 -20 4 -25 9 -4 5 -3 6 5 2 7
-4 12 -1 12 9 0 10 -5 13 -12 9 -7 -5 -9 -2 -5 8 3 10 0 15 -11 14 -11 -1 -17
6 -17 19 0 11 -10 24 -23 30 -12 5 -20 15 -18 21 2 6 -5 16 -16 23 -14 9 -19
20 -15 37 2 13 -1 24 -7 25 -6 0 -2 4 9 9 19 8 19 9 1 9 -14 1 -16 4 -7 15 6
7 8 21 5 31 -4 10 -1 21 7 27 11 8 11 9 -3 5 -10 -4 -18 1 -21 14 -5 17 -3 18
9 8 12 -10 15 -10 12 2 -2 8 -7 17 -13 21 -6 4 -1 8 10 9 l20 0 -20 9 c-11 5
-14 9 -7 9 7 1 10 6 7 11 -4 6 -12 8 -18 4 -7 -3 -5 1 4 8 12 10 14 19 8 36
-5 14 -5 21 0 17 6 -3 7 16 4 45 -3 31 -1 56 6 64 9 11 9 16 0 22 -7 4 -9 3
-5 -4 3 -6 2 -13 -3 -17 -9 -5 -9 2 -1 40 5 22 -1 44 -15 59 -14 13 -13 16 2
26 16 10 15 10 -4 5 -22 -6 -26 7 -10 32 5 7 0 10 -15 6 -19 -4 -20 -3 -8 6
13 9 13 11 -2 11 -12 0 -15 5 -11 17 4 11 3 14 -5 9 -15 -9 -16 6 -2 20 7 7 6
11 -4 11 -8 0 -13 -4 -10 -9 3 -4 1 -8 -4 -8 -5 0 -15 13 -22 30 -7 16 -16 27
-21 24 -5 -3 -9 2 -9 11 0 9 4 14 9 11 5 -4 4 7 -2 24 -8 22 -8 33 0 41 9 9 8
18 -5 38 -16 25 -16 25 1 12 15 -12 17 -12 11 4 -5 11 -3 16 3 12 12 -7 10 29
-2 40 -4 5 -5 3 -1 -4 3 -6 2 -14 -3 -17 -5 -4 -8 2 -6 11 1 10 9 17 17 17 8
-1 15 5 15 12 0 7 -4 11 -9 8 -4 -3 -5 2 -2 10 3 9 9 14 13 11 10 -5 7 26 -3
43 -4 6 -2 12 3 12 6 0 11 5 11 11 0 5 -4 8 -8 5 -5 -3 -9 1 -9 8 0 8 6 12 14
9 7 -3 13 -1 13 5 0 6 -6 12 -12 15 -10 3 -10 8 1 18 12 12 13 12 6 -1 -5 -10
-5 -12 2 -5 16 15 25 65 13 65 -6 0 -8 5 -5 10 4 6 11 7 17 4 7 -5 8 -2 3 5
-11 19 -13 71 -1 64 5 -4 7 1 3 11 -4 10 -3 15 4 11 5 -4 7 -16 4 -28 -5 -18
-4 -19 4 -6 6 9 9 26 6 37 -2 12 1 24 6 28 6 4 6 11 -1 19 -8 10 -7 16 7 24
17 10 17 10 -2 11 -14 1 -16 3 -5 7 33 12 41 25 28 41 -10 13 -10 14 0 8 6 -4
12 -3 12 1 0 5 -6 15 -12 22 -11 10 -10 12 1 9 7 -2 15 6 16 17 4 35 10 50 25
63 8 8 10 11 4 8 -7 -3 -14 0 -17 8 -3 8 1 13 11 12 12 -1 16 7 15 31 0 18 4
30 9 27 4 -3 6 -9 3 -14 -3 -5 -1 -11 4 -15 11 -6 7 27 -5 48 -5 7 0 6 11 -3
17 -14 18 -14 6 8 -8 15 -8 22 -1 22 6 0 8 5 5 10 -4 6 -11 7 -17 4 -7 -4 -8
-2 -4 5 4 6 10 9 14 7 4 -2 16 3 27 11 19 15 19 15 -5 8 -24 -7 -24 -7 -5 8
11 8 24 12 30 9 10 -7 16 -8 36 -11 5 0 7 -6 4 -11 -4 -6 -11 -7 -17 -4 -7 4
-8 2 -4 -4 4 -6 13 -9 22 -5 12 4 13 1 4 -21 -5 -15 -7 -25 -2 -23 10 7 32
-19 24 -29 -4 -4 0 -5 9 -2 9 4 16 1 16 -8 0 -7 -4 -11 -8 -9 -11 8 -5 -17 11
-42 8 -13 21 -23 29 -23 12 0 12 -3 3 -12 -17 -17 -15 -31 3 -24 13 4 14 2 5
-14 -9 -17 -8 -19 7 -13 16 6 17 5 3 -12 -9 -11 -10 -16 -2 -11 7 4 12 2 12
-4 0 -6 5 -8 12 -4 7 5 8 3 3 -7 -5 -7 -10 -25 -11 -38 -2 -20 -1 -22 6 -11 7
10 10 11 10 3 0 -7 8 -13 18 -13 13 0 14 -2 3 -9 -11 -7 -11 -9 0 -13 11 -4
11 -10 1 -32 -7 -15 -9 -25 -4 -23 4 3 16 -1 27 -9 13 -10 15 -14 4 -14 -10
-1 -10 -3 3 -11 14 -8 15 -15 8 -35 -7 -17 -7 -23 0 -19 12 7 13 -7 3 -21 -5
-5 -1 -1 9 8 23 26 29 22 13 -8 -15 -29 -10 -58 9 -47 6 4 4 -2 -4 -12 -12
-15 -12 -17 -1 -10 11 6 13 4 8 -7 -3 -10 1 -18 12 -21 14 -3 16 -12 13 -41
-3 -22 1 -43 9 -53 8 -9 9 -14 3 -10 -6 3 -11 0 -11 -8 0 -8 4 -12 9 -9 13 8
10 -10 -4 -25 -11 -11 -10 -12 1 -6 11 6 13 4 7 -10 -5 -14 -4 -16 7 -7 21 17
25 7 17 -43 -4 -25 -4 -48 1 -50 9 -6 7 -25 -6 -45 -8 -13 -7 -13 8 -1 9 7 14
17 11 22 -3 5 -1 9 4 9 6 0 13 -7 16 -16 3 -8 2 -12 -4 -9 -6 3 -10 0 -10 -9
0 -8 -6 -17 -12 -20 -7 -3 -4 -4 7 -1 16 4 20 -1 21 -21 2 -23 1 -24 -13 -7
-13 16 -13 16 -2 -7 7 -14 17 -28 23 -32 7 -5 3 -8 -9 -8 -15 0 -17 -2 -6 -9
8 -5 11 -16 8 -24 -3 -8 0 -20 6 -27 7 -8 7 -10 1 -7 -6 3 -11 0 -11 -8 0 -8
4 -12 8 -10 4 3 10 -2 13 -11 9 -24 7 -31 -4 -14 -8 12 -9 10 -7 -7 2 -12 7
-26 12 -30 4 -5 4 -1 0 7 -8 13 -7 13 8 1 18 -14 24 -26 8 -17 -5 3 -14 -1
-20 -8 -9 -11 -9 -16 0 -22 8 -4 9 -3 5 4 -4 7 -2 12 4 12 7 0 10 -6 7 -14 -3
-7 0 -19 6 -26 10 -10 7 -10 -13 -1 l-25 12 25 -22 25 -22 -25 6 c-21 5 -22 4
-9 -6 8 -7 18 -20 22 -31 6 -14 4 -17 -10 -12 -17 7 -17 6 -1 -10 12 -12 14
-23 8 -39 -4 -12 -4 -28 0 -35 5 -9 4 -20 -2 -27 -7 -9 -7 -13 1 -13 6 0 11
-5 11 -11 0 -5 -6 -7 -12 -3 -10 5 -10 4 -1 -6 8 -9 9 -19 2 -32 -7 -12 -6
-18 1 -18 7 0 7 -6 0 -21 -8 -14 -8 -24 -1 -33 7 -9 7 -16 -1 -24 -9 -9 -9
-12 0 -12 7 0 12 -5 12 -11 0 -5 -6 -7 -12 -3 -10 6 -10 5 -1 -7 10 -12 10
-18 0 -29 -10 -10 -9 -11 3 -5 13 8 13 7 1 -8 -11 -14 -11 -17 0 -17 12 0 12
-2 0 -9 -11 -7 -11 -10 0 -15 11 -5 11 -7 2 -12 -7 -3 -13 -10 -13 -15 0 -6 4
-8 9 -5 12 8 8 -27 -4 -36 -6 -5 -5 -8 4 -8 11 0 11 -3 1 -15 -9 -11 -9 -15
-1 -15 9 0 9 -5 1 -20 -9 -17 -8 -19 7 -13 10 3 15 3 11 -2 -4 -4 4 -19 18
-32 26 -24 40 -30 29 -13 -3 6 0 10 9 10 8 0 17 -6 19 -12 3 -8 6 -7 6 4 1 9
5 19 10 22 5 4 7 -4 5 -16 l-5 -23 12 23 c8 14 18 21 27 17 12 -5 13 -3 2 10
-7 9 -10 18 -6 22 3 3 6 1 6 -5 0 -9 5 -9 19 0 11 7 19 17 18 22 -1 6 4 10 12
8 10 -2 12 4 7 24 -7 25 -6 25 10 10 13 -14 19 -14 33 -4 26 20 27 22 9 15
-10 -4 -18 -2 -18 3 0 6 7 10 15 10 8 0 15 6 15 14 0 8 5 18 12 22 7 5 9 2 4
-7 -4 -8 0 -5 8 5 11 13 16 15 16 6 0 -7 3 -10 6 -7 4 4 1 14 -7 24 -9 11 -10
14 -1 9 6 -4 12 -4 12 1 0 4 10 19 23 33 12 14 18 19 12 11 -9 -12 -7 -12 12
-1 12 8 21 19 20 24 -1 6 3 10 10 11 6 0 15 4 20 9 5 5 3 6 -4 2 -7 -4 -13 -2
-13 3 0 6 8 11 18 11 15 1 15 2 -2 15 -20 15 -12 20 22 16 7 -1 11 4 10 11 -2
7 3 12 11 10 12 -3 12 0 1 12 -11 14 -9 16 10 16 14 0 20 5 17 13 -5 14 18 39
27 29 4 -3 4 2 0 12 -5 13 -4 17 4 12 6 -3 14 -1 18 5 4 8 3 9 -4 5 -7 -4 -12
-2 -12 4 0 6 7 13 16 17 13 5 13 7 2 14 -9 6 -6 9 11 9 20 0 22 2 11 15 -11
13 -9 20 9 38 11 13 21 28 21 34 0 6 8 17 18 24 16 13 16 13 2 -6 -15 -20 -14
-20 8 -1 23 20 30 32 12 21 -6 -3 -10 -1 -10 4 0 6 5 11 11 11 8 0 7 5 -1 15
-11 13 -10 14 5 9 15 -6 16 -5 5 17 -12 21 -12 23 2 11 11 -9 18 -10 23 -2 3
5 1 10 -6 10 -9 0 -9 4 1 15 6 8 9 19 6 24 -4 5 -1 13 5 17 7 4 9 3 6 -2 -3
-6 -1 -16 4 -24 7 -12 8 -11 6 5 -1 11 -7 26 -11 34 -7 11 -5 13 8 8 10 -4 16
-2 15 6 -4 21 13 47 25 40 6 -4 5 1 -3 10 -7 9 -18 14 -24 10 -6 -3 -7 -1 -3
5 4 6 14 8 24 5 14 -6 15 -4 5 9 -11 12 -9 19 7 38 12 13 17 28 12 34 -11 15
-9 41 3 39 6 0 16 5 23 13 10 10 10 14 1 14 -7 0 -9 3 -6 6 3 4 1 16 -5 28
-10 19 -9 19 5 8 13 -11 15 -11 13 0 -1 7 -5 18 -9 25 -4 6 -3 14 3 18 5 3 10
11 10 16 0 6 -6 7 -12 3 -9 -5 -9 -3 1 9 7 9 17 14 22 11 5 -3 6 3 2 12 -5 13
-3 15 7 9 9 -6 11 -4 5 4 -5 9 -10 10 -18 2 -6 -6 -15 -11 -21 -11 -5 0 3 11
19 24 20 17 24 26 15 31 -8 5 -11 4 -7 -1 3 -5 -3 -10 -14 -10 -19 0 -19 1 -4
12 9 7 14 17 11 23 -4 5 -1 13 5 17 8 4 9 3 5 -4 -4 -7 -2 -12 3 -12 12 0 10
27 -2 48 -5 6 -4 12 1 12 5 0 9 7 9 15 0 8 -4 15 -9 15 -10 0 -6 23 7 33 6 6
6 10 -2 14 -7 2 -13 9 -13 14 0 6 4 8 9 4 6 -3 8 3 6 15 -2 11 1 22 6 25 5 4
7 11 3 16 -3 5 -9 7 -14 4 -4 -3 -14 3 -21 13 -12 15 -12 16 2 5 16 -13 29 -8
29 9 0 5 -6 6 -12 2 -7 -4 -9 -3 -5 1 10 11 39 16 32 6 -2 -5 6 -13 18 -20 25
-14 67 -73 67 -96 0 -8 5 -15 11 -15 5 0 7 5 3 12 -4 7 -3 8 5 4 6 -4 8 -12 5
-18 -5 -7 -2 -9 8 -6 8 4 15 1 15 -7 0 -8 -7 -11 -16 -8 -10 4 -9 0 4 -10 11
-8 23 -13 26 -11 4 2 13 -4 20 -13 8 -9 9 -14 3 -10 -7 4 -14 -2 -17 -13 -3
-11 0 -18 7 -17 6 1 10 -3 9 -9 -1 -8 6 -10 20 -7 22 5 22 5 2 -11 -19 -15
-19 -16 -1 -9 16 5 18 3 13 -12 -7 -16 -5 -16 10 -4 11 9 14 10 9 2 -4 -8 -2
-13 5 -13 8 0 8 -4 -1 -15 -7 -9 -10 -18 -6 -22 3 -3 6 -1 6 5 0 7 4 12 10 12
5 0 9 -3 9 -7 -1 -5 -1 -14 0 -22 1 -11 4 -11 18 0 15 13 15 12 4 -8 -8 -16
-8 -23 -1 -23 6 0 8 -4 5 -10 -3 -5 1 -10 10 -10 9 0 14 -4 10 -9 -3 -5 4 -12
15 -16 11 -3 20 -13 20 -21 0 -9 5 -12 12 -8 8 5 9 2 4 -11 -5 -14 -4 -15 7
-7 7 6 27 9 45 7 18 -2 30 0 27 4 -3 5 2 12 11 15 10 4 14 12 10 22 -5 13 -3
14 7 6 10 -8 13 -6 14 9 1 12 -3 17 -10 13 -7 -3 -1 3 12 14 18 14 21 21 11
27 -9 6 -11 4 -5 -5 5 -8 4 -11 -3 -7 -5 4 -8 16 -5 27 3 11 9 18 13 15 10 -6
8 15 -3 33 -5 6 -5 12 0 12 4 0 8 14 8 30 1 17 -2 30 -6 30 -9 0 -6 27 4 36
10 11 9 26 -2 20 -11 -7 -9 13 2 32 5 7 3 12 -5 12 -9 0 -9 3 2 10 12 8 12 10
1 10 -10 0 -11 3 -2 14 8 10 9 16 1 21 -5 3 -10 11 -10 16 0 6 4 8 8 5 5 -3 9
1 9 9 0 8 -4 12 -7 10 -4 -3 -7 6 -7 20 0 15 4 22 11 19 6 -3 2 2 -8 10 -11 9
-16 16 -10 16 5 0 9 13 9 29 0 26 -2 28 -20 19 -16 -9 -18 -8 -8 3 10 10 9 17
-5 33 -16 20 -16 20 1 7 20 -15 23 -2 5 18 -7 8 -8 11 -2 8 6 -3 11 0 11 7 0
8 -6 12 -12 10 -6 -3 -12 2 -12 11 0 8 4 15 9 15 4 0 8 5 8 11 0 5 -6 7 -12 3
-8 -5 -7 0 2 11 13 17 13 18 0 13 -13 -5 -16 1 -14 24 1 19 -2 28 -10 25 -6
-3 -12 3 -12 13 0 10 4 16 8 14 4 -3 5 2 2 10 -3 9 -10 16 -15 16 -5 0 -9 5
-9 11 0 5 4 8 8 5 5 -3 9 1 9 9 0 8 -3 14 -6 13 -3 0 -13 0 -21 1 -13 1 -13 2
0 11 11 7 11 10 2 10 -7 0 -11 4 -7 9 3 5 -2 16 -10 24 -16 17 -21 32 -7 23 5
-3 9 1 9 9 0 8 -4 12 -9 9 -4 -3 -8 2 -8 11 0 10 -5 13 -12 9 -8 -5 -9 -2 -5
9 3 9 2 19 -3 22 -5 3 -7 13 -4 23 4 11 3 13 -3 6 -5 -8 -14 -4 -28 15 -18 24
-18 25 0 11 17 -14 18 -14 6 8 -7 13 -18 21 -26 18 -9 -3 -12 4 -11 25 2 26
-1 30 -18 25 -21 -5 -21 -5 -1 11 20 15 20 15 -3 10 -12 -3 -20 -1 -17 3 3 5
2 10 -2 13 -5 2 -1 2 7 0 11 -2 11 0 -2 11 -10 7 -18 19 -18 25 0 7 -4 9 -10
6 -6 -4 -10 6 -11 22 0 25 -1 26 -9 8 -6 -13 -9 -15 -9 -5 -1 8 -10 21 -21 28
-11 7 -20 17 -20 24 0 7 6 4 13 -7 12 -15 15 -16 22 -4 5 8 5 11 0 7 -4 -4
-18 6 -32 23 -14 16 -35 29 -46 29 -16 0 -18 3 -9 9 10 6 8 10 -10 16 -12 4
-27 6 -33 5 -5 -1 -7 2 -3 6 4 4 2 14 -5 22 -8 11 -8 14 0 9 6 -4 15 -2 19 4
4 7 3 9 -4 5 -6 -3 -18 2 -28 11 -17 17 -18 17 -11 1 3 -10 3 -18 -2 -18 -5 0
-11 10 -14 21 -4 15 -11 20 -21 16 -10 -4 -16 -1 -16 9 0 8 4 13 8 10 4 -2 8
4 8 15 0 12 -4 15 -10 9 -6 -6 -15 -10 -21 -10 -5 0 -3 5 5 10 10 6 11 10 3
10 -7 0 -13 5 -13 11 0 8 4 8 13 1 12 -10 17 -12 38 -12 5 0 8 -4 5 -8 -3 -5
1 -9 9 -9 8 0 15 4 15 9 0 4 -4 8 -10 8 -5 0 -10 4 -10 8 0 5 16 9 35 9 19 0
35 -4 35 -9 0 -4 5 -8 11 -8 5 0 7 4 4 10 -4 6 1 7 11 3 12 -5 15 -3 9 6 -5
10 -3 11 11 4 11 -5 29 -8 42 -7 12 0 25 -3 29 -9 3 -6 2 -7 -4 -4 -5 3 -10 0
-10 -8 0 -11 4 -12 14 -4 9 9 17 8 27 0 10 -9 16 -9 21 -1 4 6 13 9 20 6 7 -2
18 1 25 7 10 9 11 9 6 0 -3 -6 -1 -15 5 -19 8 -4 9 -3 5 4 -5 9 3 11 29 7 l36
-4 -23 20 c-13 11 -16 17 -9 13 22 -11 60 -11 54 0 -4 5 1 6 12 2 15 -5 16 -4
5 9 -11 13 -10 14 6 8 16 -6 17 -4 7 9 -11 12 -10 19 6 36 10 12 22 18 26 14
5 -4 5 -1 1 6 -6 10 -11 10 -21 2 -11 -9 -13 -7 -9 14 2 14 0 26 -6 26 -5 0
-10 5 -10 11 0 5 4 8 8 5 5 -3 9 2 9 10 0 10 -4 11 -11 4 -19 -19 -23 -13 -28
47 -1 8 -7 9 -19 3 -13 -8 -19 -3 -30 23 -8 17 -13 35 -11 40 2 7 -13 11 -37
7 -13 -1 -13 1 -2 14 12 14 11 16 -4 10 -13 -5 -16 -4 -11 4 4 7 1 12 -9 12
-12 0 -15 6 -11 23 3 12 3 16 0 10 -3 -7 -10 -13 -15 -13 -6 0 -7 4 -4 10 3 6
-1 7 -9 4 -11 -4 -16 0 -16 11 0 10 5 13 12 9 7 -4 8 -3 4 5 -4 6 -11 9 -15 7
-4 -3 -20 6 -36 20 -15 13 -31 24 -34 24 -3 -1 10 -15 29 -32 19 -16 26 -25
14 -20 -11 6 -26 18 -33 26 -8 9 -17 13 -22 10 -5 -3 -6 3 -2 12 5 14 2 16
-17 11 -17 -4 -20 -3 -12 5 8 8 7 15 -6 24 -9 8 -21 14 -26 14 -6 0 -2 -6 9
-13 14 -11 15 -16 5 -22 -9 -5 -11 -4 -6 3 4 7 1 12 -8 12 -10 0 -16 9 -16 21
0 18 -3 19 -15 9 -12 -10 -16 -9 -21 3 -3 9 -14 13 -27 10 -20 -4 -20 -3 3 11
l25 16 -34 -7 c-28 -5 -33 -3 -26 8 7 11 5 11 -10 -1 -17 -14 -17 -13 -11 10
5 18 4 21 -3 11 -10 -16 -45 -25 -35 -10 3 5 10 6 16 3 6 -4 8 -2 5 3 -4 6
-25 10 -46 9 -22 0 -39 1 -39 4 1 20 -4 30 -12 25 -5 -3 -10 -1 -10 6 0 7 -3
9 -6 6 -4 -4 -2 -13 4 -20 9 -10 8 -14 -3 -14 -7 0 -14 3 -13 6 2 19 -4 24
-12 11 -8 -12 -10 -10 -10 10 0 19 -2 22 -9 11 -8 -12 -14 -13 -37 -2 -26 11
-26 11 -13 -6 13 -17 13 -17 -6 -2 -27 22 -69 43 -62 31 4 -5 0 -18 -8 -28
-13 -18 -14 -18 -8 4 5 22 -6 28 -45 23 -8 -1 -19 3 -27 9 -9 8 -15 8 -20 0
-8 -13 -47 -13 -63 0 -6 6 -10 7 -7 4 6 -9 -14 -34 -27 -34 -6 0 -6 6 1 14 10
12 8 13 -8 9 -12 -3 -19 -8 -17 -12 3 -4 -4 -12 -14 -19 -19 -11 -40 1 -26 15
3 4 6 1 6 -6 0 -7 5 -9 10 -6 6 3 10 10 10 15 0 13 -31 5 -41 -11 -8 -13 -13
-6 -10 16 1 6 -4 3 -11 -6 -7 -9 -21 -15 -30 -13 -10 1 -18 -2 -18 -7 0 -5 -5
-9 -11 -9 -5 0 -7 5 -4 11 4 6 -2 5 -13 -2 -12 -7 -19 -16 -16 -20 2 -4 -7 -6
-21 -5 -14 2 -33 -3 -42 -10 -24 -18 -33 -17 -33 1 0 14 -12 19 -32 16 -5 0
-8 6 -8 15 0 9 -5 12 -12 8 -10 -5 -10 -4 -1 6 14 15 6 40 -13 40 -12 0 -19
19 -15 43 1 5 -4 5 -10 1 -9 -5 -10 -2 -6 9 4 11 2 14 -7 11 -7 -3 -19 2 -26
11 -11 13 -10 14 4 9 9 -3 16 -1 16 6 0 6 -4 9 -9 5 -5 -3 -16 2 -24 10 -12
11 -17 12 -21 2 -3 -6 -3 -1 0 12 5 17 3 21 -7 16 -9 -6 -11 -3 -5 10 6 16 4
16 -11 4 -15 -12 -16 -12 -10 4 5 13 2 17 -11 15 -12 -2 -16 3 -14 16 3 16 -1
18 -25 12 -18 -4 -23 -3 -14 2 9 7 10 12 2 16 -6 4 -8 13 -4 19 4 7 -2 5 -12
-3 -11 -9 -16 -10 -11 -2 4 7 2 12 -4 12 -6 0 -8 5 -4 12 4 7 3 8 -5 4 -6 -4
-14 0 -17 8 -3 9 -11 16 -16 16 -6 0 -6 -6 1 -14 8 -10 9 -16 1 -21 -6 -4 -9
-1 -8 6 2 7 -7 18 -19 24 -13 5 -23 15 -23 22 0 6 -5 15 -12 19 -7 5 -9 2 -5
-8 3 -10 1 -15 -8 -14 -18 3 -30 14 -30 28 0 6 -8 12 -18 14 -9 1 -15 -2 -11
-7 3 -5 10 -6 16 -3 7 5 8 2 4 -5 -6 -9 -13 -8 -27 5 -10 9 -25 14 -35 10 -14
-5 -15 -4 -4 9 16 20 6 19 -28 -2 -26 -17 -27 -17 -12 1 14 18 13 19 -8 14
-13 -4 -28 0 -37 9 -12 11 -15 11 -15 1 0 -10 -3 -9 -10 2 -8 12 -13 13 -29 3
-16 -10 -22 -9 -32 3 -10 13 -14 13 -29 -1 -12 -11 -19 -12 -28 -3 -9 9 -15 9
-23 1 -14 -14 -41 -5 -33 11 3 6 -1 3 -8 -6 -11 -12 -16 -13 -24 -5 -5 7 -8
11 -7 8 1 -2 -9 -18 -22 -36 -14 -17 -22 -35 -19 -38 4 -4 -1 -9 -10 -13 -15
-6 -14 -8 5 -25 12 -11 18 -19 13 -19 -5 0 0 -7 10 -15 17 -13 18 -15 3 -15
-9 0 -17 -5 -17 -11 0 -5 4 -8 9 -5 13 8 42 -4 35 -15 -3 -5 2 -12 11 -15 14
-6 14 -8 -2 -21 -10 -8 -13 -12 -6 -9 6 4 15 1 19 -6 4 -7 4 -10 -1 -6 -4 4
-15 3 -24 -1 -10 -6 -23 -4 -35 5 -10 7 -23 11 -29 7 -6 -3 -7 -1 -3 5 3 6 2
13 -4 17 -5 3 -10 0 -10 -7 0 -9 -3 -9 -10 2 -5 8 -10 11 -10 6 0 -5 -6 -3
-13 3 -8 6 -17 8 -21 4 -8 -9 -75 -12 -74 -4 2 19 -4 28 -17 28 -8 0 -15 -4
-15 -9 0 -5 -7 -2 -16 7 -15 15 -18 15 -41 -1 -15 -9 -22 -11 -18 -3 6 9 2 11
-13 7 -12 -4 -25 -1 -28 4 -4 7 -10 4 -16 -6 -8 -14 -13 -15 -24 -5 -8 6 -17
9 -21 6 -3 -4 -12 -2 -20 4 -10 9 -13 7 -13 -7 0 -17 -1 -17 -15 2 -10 13 -14
15 -15 5 0 -8 -3 -11 -7 -8 -3 4 -12 2 -20 -5 -10 -8 -17 -8 -26 1 -9 10 -8
11 8 6 16 -5 17 -5 5 3 -15 12 -34 6 -25 -8 6 -10 -19 -20 -32 -12 -5 4 -13
14 -16 22 -4 12 -6 11 -6 -2 -1 -10 -4 -17 -8 -17 -20 3 -34 -2 -28 -11 3 -5
1 -10 -4 -10 -6 0 -11 6 -11 13 0 8 -4 7 -10 -3 -9 -13 -10 -13 -10 0 0 13 -1
13 -10 0 -5 -8 -10 -11 -10 -7 0 4 -10 3 -21 -4 -15 -8 -19 -8 -15 0 4 6 2 11
-3 11 -6 0 -11 -4 -11 -10 0 -5 -5 -10 -11 -10 -5 0 -8 4 -5 8 2 4 -6 8 -19 8
-13 0 -22 -3 -20 -6 2 -3 0 -12 -4 -19 -6 -10 -12 -8 -26 6 -16 15 -18 16 -13
1 4 -10 1 -19 -8 -22 -24 -9 -31 -7 -14 4 8 5 10 10 4 10 -6 0 -14 -3 -18 -7
-3 -4 -17 -8 -29 -10 -12 -2 -23 -8 -25 -13 -2 -6 -10 -10 -18 -10 -10 0 -12
-5 -8 -12 5 -8 1 -8 -10 1 -15 13 -19 13 -27 0 -5 -8 -9 -20 -9 -28 0 -9 -8
-11 -27 -6 -27 6 -27 6 -8 -10 11 -9 15 -14 8 -11 -6 4 -14 2 -18 -4 -3 -5 -1
-10 6 -10 8 0 8 -4 -1 -15 -15 -18 -10 -25 18 -28 17 -1 18 -5 11 -30 -7 -24
-6 -27 6 -17 12 10 15 10 15 0 0 -10 3 -10 14 -1 12 10 13 8 8 -11 -5 -21 -4
-22 14 -8 10 8 16 11 12 6 -9 -11 16 -36 36 -36 8 0 17 -8 21 -19 3 -10 13
-18 23 -17 10 0 17 -6 16 -15 -1 -12 4 -15 19 -11 15 4 18 2 13 -9 -4 -8 0 -5
8 5 9 11 16 15 16 10 0 -5 17 -28 38 -50 20 -22 31 -32 24 -23 -9 12 -10 19
-2 24 6 3 9 3 8 -2 -5 -13 38 -63 47 -55 4 4 5 -3 2 -16 -3 -12 -1 -20 3 -17
17 11 42 -8 36 -27 -2 -11 -2 -17 1 -14 4 3 13 0 22 -7 14 -11 14 -10 2 6 -12
15 -12 17 3 11 10 -4 16 -15 14 -28 -2 -17 -10 -21 -35 -20 -38 1 -38 1 -15
-22 15 -16 15 -17 0 -12 -9 4 -19 4 -21 0 -2 -4 -2 0 0 8 2 8 -6 4 -17 -10
-11 -14 -19 -18 -17 -10 2 8 2 12 0 7 -3 -4 -9 -4 -15 -1 -6 4 -6 -1 1 -14 9
-18 8 -19 -11 -14 -18 4 -20 2 -15 -14 7 -18 6 -18 -7 -1 -18 23 -25 22 -22
-6 2 -19 -1 -23 -26 -21 -15 1 -25 -2 -22 -7 3 -5 10 -7 15 -4 5 4 6 -2 2 -11
-4 -11 -8 -13 -11 -6 -2 7 -8 12 -14 12 -6 0 -8 -6 -5 -14 4 -10 0 -14 -14
-11 -17 3 -18 1 -8 -18 9 -18 9 -20 -2 -9 -18 17 -30 15 -27 -5 2 -13 -3 -18
-19 -17 -14 1 -20 -3 -16 -12 3 -9 -3 -14 -18 -15 -13 0 -19 -3 -12 -5 7 -3 9
-12 6 -20 -5 -13 -7 -13 -14 -2 -7 10 -9 11 -9 0 0 -7 -5 -10 -11 -6 -8 5 -8
1 0 -14 10 -19 9 -20 -11 -17 -23 4 -23 4 -3 -11 20 -16 19 -16 -4 -9 -16 5
-21 4 -17 -4 4 -6 2 -11 -4 -11 -6 0 -8 -4 -5 -10 3 -5 -1 -10 -9 -10 -8 0
-18 -5 -22 -12 -4 -6 -3 -8 4 -4 6 3 14 2 17 -4 4 -6 3 -10 -2 -9 -21 4 -31
-2 -29 -18 1 -12 -5 -17 -18 -15 -12 2 -16 -1 -11 -10 3 -7 -2 -3 -13 9 -11
12 -23 19 -27 15 -5 -4 -5 -1 0 7 7 12 10 11 22 -4 7 -11 13 -14 13 -8 0 7 -7
18 -15 26 -8 8 -12 17 -9 19 3 3 -8 4 -23 2 -24 -4 -25 -3 -8 5 19 9 18 12 -4
15 -5 0 -13 5 -18 10 -5 5 -3 6 5 2 6 -4 12 -2 12 5 0 6 -8 9 -19 6 -14 -3
-18 -1 -14 9 3 8 10 11 17 7 6 -4 5 1 -3 10 -15 18 -26 23 -16 7 3 -6 -1 -7
-10 -4 -13 5 -13 9 -3 23 7 9 9 13 4 9 -4 -4 -21 8 -38 25 -16 18 -26 24 -22
15 3 -10 2 -18 -4 -18 -6 0 -9 11 -7 25 2 22 0 23 -13 13 -13 -11 -15 -10 -10
2 3 9 -7 25 -26 39 l-31 25 25 -29 25 -28 -27 19 c-15 10 -28 28 -28 39 0 17
-2 17 -10 5 -8 -13 -10 -12 -10 3 0 10 -4 16 -9 12 -5 -3 -12 4 -16 14 -3 11
-12 18 -20 15 -7 -3 -16 0 -20 5 -3 6 -12 8 -18 4 -8 -5 -8 -2 1 9 10 13 8 15
-15 11 -22 -4 -25 -2 -13 6 12 9 11 11 -8 11 -15 0 -21 -4 -16 -12 4 -7 3 -8
-5 -4 -9 6 -9 11 0 22 6 8 9 15 5 15 -3 1 -9 2 -13 3 -5 1 -14 5 -20 9 -7 5
-13 4 -13 0 0 -5 6 -15 13 -23 6 -8 2 -6 -10 4 -26 22 -30 46 -9 46 8 0 18 5
22 12 5 7 3 8 -7 3 -12 -8 -12 -6 0 9 11 13 16 14 22 4 6 -9 9 -6 9 10 0 13 4
20 10 17 6 -3 10 1 10 9 0 8 5 18 12 22 7 4 8 3 4 -4 -4 -7 -3 -12 2 -12 6 0
12 7 16 15 3 8 0 15 -6 15 -6 0 -8 3 -5 6 4 4 13 1 22 -6 9 -7 18 -10 22 -6 3
3 2 6 -4 6 -5 0 -10 7 -10 15 0 8 3 12 7 10 4 -3 15 4 25 15 10 11 24 20 32
20 8 0 11 5 8 10 -3 6 -1 10 5 10 6 0 8 5 4 12 -4 7 -3 8 4 4 6 -4 9 -13 5
-21 -3 -8 0 -15 6 -15 6 0 10 6 8 13 -1 6 4 11 10 10 7 -2 12 0 12 5 -3 18 2
32 12 32 5 0 8 -4 5 -8 -2 -4 4 -8 15 -8 12 0 15 4 9 10 -16 16 -12 26 7 19
11 -4 14 -3 9 6 -5 8 -3 11 7 9 9 -2 15 2 14 7 -1 6 -6 9 -10 7 -5 -1 -6 2 -2
8 5 8 11 7 22 -2 12 -10 17 -9 28 5 6 9 15 14 19 10 3 -4 15 3 26 15 12 12 25
22 30 22 6 0 10 5 10 11 0 5 -4 8 -9 5 -5 -3 -12 1 -15 10 -3 8 -2 12 4 9 6
-3 10 1 10 9 0 10 -6 13 -17 10 -11 -4 -14 -2 -8 3 17 14 40 47 28 40 -6 -4
-14 -3 -18 2 -3 6 -12 8 -20 4 -17 -6 -20 8 -5 23 7 7 6 11 -4 11 -8 0 -13 -4
-10 -9 8 -13 -6 -9 -22 7 -8 8 -22 11 -31 8 -11 -4 -14 -3 -9 5 4 7 2 12 -4
12 -6 0 -8 5 -4 11 4 8 0 8 -15 0 -14 -8 -21 -8 -21 -1 0 7 -6 8 -19 0 -14 -7
-22 -7 -26 0 -4 6 -20 9 -35 6 -22 -3 -27 -1 -23 10 4 10 -3 13 -26 10 -17 -2
-34 1 -38 7 -4 6 -1 7 7 2 9 -5 11 -4 6 4 -6 9 -14 8 -33 -4 -14 -10 -23 -13
-19 -7 3 5 -2 16 -11 23 -10 8 -14 9 -10 2 4 -6 3 -14 -3 -18 -5 -3 -10 -1
-10 6 0 8 -5 7 -17 -2 -11 -10 -14 -10 -9 -1 4 7 2 12 -8 12 -8 0 -17 -4 -21
-10 -6 -10 -35 -2 -35 10 0 5 9 7 20 5 11 -2 22 0 25 5 3 5 -4 7 -15 5 -11 -2
-20 2 -20 8 0 8 -3 8 -9 -1 -9 -14 -61 -24 -61 -12 0 4 -9 10 -21 13 -15 4
-19 2 -15 -8 3 -9 0 -12 -9 -8 -8 3 -13 8 -10 12 2 4 -2 8 -10 8 -8 0 -15 -4
-15 -9 0 -4 -5 -8 -11 -8 -5 0 -7 6 -3 13 6 9 4 9 -8 -1 -12 -10 -18 -10 -23
-1 -6 8 -10 7 -16 -2 -7 -12 -9 -11 -9 0 0 11 -4 10 -16 -5 -8 -10 -12 -13 -8
-5 4 9 2 12 -7 9 -8 -3 -22 -1 -33 4 -13 7 -16 7 -12 -1 4 -6 3 -11 -3 -11 -5
0 -13 5 -16 10 -4 7 -13 7 -26 0 -10 -6 -19 -8 -19 -4 0 4 -12 -3 -27 -17 -14
-13 -23 -18 -19 -11 4 6 2 12 -3 12 -6 0 -11 -6 -11 -12 0 -9 -4 -8 -10 2 -5
8 -10 10 -10 3 0 -6 -8 -10 -17 -9 -10 2 -21 -4 -25 -13 -6 -14 -7 -13 -7 2
-1 10 -5 16 -11 12 -5 -3 -6 -13 -3 -23 5 -14 3 -14 -9 2 -12 15 -17 16 -23 6
-5 -9 -4 -11 3 -6 7 4 12 5 12 2 0 -3 -9 -10 -19 -16 -14 -7 -22 -7 -27 2 -4
6 -3 9 2 6 5 -4 10 5 10 18 1 13 -1 24 -5 24 -4 0 -8 6 -8 14 0 8 8 12 21 10
12 -3 16 -2 9 2 -13 6 -6 34 9 34 5 0 6 -5 2 -12 -4 -6 -3 -8 3 -5 6 4 10 20
9 36 -1 17 2 27 9 25 6 -3 11 6 11 20 0 14 -6 28 -14 31 -8 3 -10 0 -6 -8 5
-9 3 -8 -7 1 -12 11 -12 14 1 22 13 8 12 10 -3 10 -10 0 -16 4 -13 8 3 5 -1 9
-9 9 -8 0 -11 -5 -8 -11 4 -6 -1 -5 -10 3 -9 7 -17 10 -17 6 0 -4 -8 -1 -17 6
-11 10 -14 10 -9 2 4 -8 1 -13 -9 -13 -9 0 -13 5 -10 10 9 15 -1 12 -15 -5z
m320 -185 c0 -5 -7 -10 -16 -10 -9 0 -12 -5 -8 -12 6 -10 4 -10 -8 0 -11 9
-18 9 -21 2 -3 -6 -5 -6 -3 1 1 7 10 13 20 15 10 1 20 5 24 8 8 9 12 7 12 -4z
m-837 -14 c4 -10 1 -13 -8 -9 -8 3 -12 9 -9 14 7 12 11 11 17 -5z m591 -21
c-7 -16 -24 -21 -24 -6 0 8 7 13 27 20 1 1 0 -6 -3 -14z m1189 -80 c-3 -9 -8
-14 -10 -11 -3 3 -2 9 2 15 9 16 15 13 8 -4z m-158 -25 c3 -5 1 -10 -4 -10 -6
0 -11 5 -11 10 0 6 2 10 4 10 3 0 8 -4 11 -10z m2357 -92 c-7 -7 -10 -5 -7 8
5 29 6 30 12 16 3 -8 1 -18 -5 -24z m-4506 4 c1 -7 0 -8 -3 -2 -2 5 -9 8 -14
4 -5 -3 -9 0 -9 6 0 15 23 7 26 -8z m2149 8 c3 -5 1 -10 -4 -10 -6 0 -11 5
-11 10 0 6 2 10 4 10 3 0 8 -4 11 -10z m2300 0 c3 -5 1 -10 -4 -10 -6 0 -11 5
-11 10 0 6 2 10 4 10 3 0 8 -4 11 -10z m120 1 c3 -5 2 -12 -3 -15 -5 -3 -9 1
-9 9 0 17 3 19 12 6z m70 -11 c3 -6 -1 -7 -9 -4 -18 7 -21 14 -7 14 6 0 13 -4
16 -10z m-4955 -26 c0 -8 -19 -13 -24 -6 -3 5 1 9 9 9 8 0 15 -2 15 -3z m540
2 c0 -2 -8 -10 -17 -17 -16 -13 -17 -12 -4 4 13 16 21 21 21 13z m-740 -56 c0
-5 -5 -10 -11 -10 -5 0 -7 5 -4 10 3 6 8 10 11 10 2 0 4 -4 4 -10z m-439 -507
c13 -16 12 -17 -3 -4 -17 13 -22 21 -14 21 2 0 10 -8 17 -17z m6174 -23 c-14
-15 -21 -17 -32 -9 -18 15 -16 19 7 14 11 -2 22 0 25 6 4 5 9 9 12 9 3 0 -2
-9 -12 -20z m-5825 -120 c0 -5 -5 -10 -11 -10 -5 0 -7 5 -4 10 3 6 8 10 11 10
2 0 4 -4 4 -10z m5710 -75 c7 -8 9 -15 6 -15 -4 0 -14 7 -22 15 -9 8 -11 15
-6 15 5 0 15 -7 22 -15z m-3898 -235 c7 -11 16 -20 21 -20 4 0 5 6 1 13 -5 8
-3 8 9 -2 9 -7 25 -11 36 -8 20 5 22 -7 7 -33 -7 -12 -6 -13 5 -2 7 6 19 12
27 12 8 0 10 -5 6 -12 -4 -7 -4 -10 0 -6 5 4 18 3 31 -2 15 -6 27 -4 35 3 10
10 10 7 0 -11 -6 -13 -9 -26 -6 -30 3 -3 6 -1 6 5 0 6 7 13 15 17 8 3 14 2 14
-2 -1 -4 -1 -14 0 -22 1 -13 2 -13 11 0 6 10 10 11 10 3 0 -7 5 -13 11 -13 7
0 18 -8 25 -17 13 -17 14 -17 7 2 -6 17 -4 18 9 8 8 -7 19 -9 24 -5 4 4 3 0
-4 -9 -10 -14 -10 -18 3 -23 9 -3 14 -2 11 2 -3 5 1 9 8 9 8 0 12 -7 9 -15 -5
-12 -2 -12 16 -2 21 11 22 10 11 -10 -11 -20 -10 -21 11 -15 17 6 21 4 16 -9
-3 -8 -1 -18 5 -22 6 -4 8 -3 5 3 -4 6 0 13 7 16 10 4 14 0 11 -12 -3 -14 1
-17 16 -14 11 3 19 0 19 -6 0 -7 -5 -9 -12 -5 -9 5 -8 2 1 -9 11 -14 16 -15
29 -5 13 11 14 11 7 -1 -6 -11 -3 -13 13 -9 12 3 20 2 19 -2 -1 -5 7 -16 18
-25 18 -15 17 -15 -10 0 -29 17 -29 17 -13 0 9 -10 27 -19 40 -20 16 -1 24 -9
26 -25 3 -18 6 -20 13 -9 7 11 9 11 9 1 0 -8 5 -10 13 -6 7 5 6 0 -3 -11 -9
-11 -10 -16 -2 -11 6 4 12 2 12 -3 0 -6 3 -10 8 -10 16 3 32 -1 31 -8 -4 -22
3 -33 19 -33 22 0 87 -66 73 -75 -6 -3 -11 -11 -11 -16 0 -6 7 -3 16 5 18 18
28 21 19 6 -10 -16 14 -40 33 -33 14 4 15 3 2 -5 -12 -9 -11 -14 9 -31 15 -13
21 -26 17 -37 -6 -15 -4 -15 11 -3 14 12 16 12 8 0 -11 -20 -15 -62 -5 -56 5
3 7 12 4 19 -3 8 0 17 7 22 8 4 10 3 5 -5 -4 -6 -2 -18 4 -26 9 -11 9 -15 1
-15 -6 0 -11 -5 -11 -11 0 -5 5 -7 11 -3 7 4 7 -1 -1 -16 -8 -15 -8 -20 -1
-16 15 10 14 -7 -1 -23 -11 -11 -10 -13 5 -8 15 6 17 3 12 -13 -5 -15 -2 -20
11 -20 14 0 14 -3 4 -15 -7 -9 -10 -18 -6 -22 3 -3 6 -1 6 5 0 7 5 12 11 12 6
0 9 -7 6 -15 -4 -8 -1 -17 5 -21 7 -5 8 -2 3 6 -6 9 -2 10 15 5 17 -5 21 -4
15 5 -5 9 -4 11 4 6 6 -4 8 -12 5 -18 -5 -7 -2 -8 7 -2 8 5 37 9 64 9 36 0 49
4 47 13 -1 8 2 11 8 7 6 -3 8 -10 5 -15 -3 -5 0 -12 6 -16 8 -4 9 -3 5 4 -4 7
-3 12 1 12 5 0 10 11 11 26 2 32 19 64 34 64 7 0 3 7 -8 16 -10 8 -14 13 -8
10 7 -3 14 1 18 9 3 8 1 15 -5 15 -6 0 -8 4 -4 10 3 5 13 6 23 3 16 -6 15 -5
-1 11 -14 14 -15 21 -6 32 6 8 8 14 3 15 -5 0 2 5 15 10 16 6 21 14 17 25 -4
11 -2 15 8 11 10 -4 14 0 11 14 -4 18 -2 19 12 7 15 -12 15 -11 4 9 -10 19 -9
22 4 17 8 -4 15 -11 15 -17 0 -6 3 -7 6 -4 4 4 1 14 -7 24 -9 11 -10 14 -1 9
8 -5 12 -1 12 11 0 15 2 16 10 3 8 -13 10 -12 11 5 1 11 1 24 0 28 -1 4 7 3
17 -2 14 -7 19 -6 20 5 1 7 3 20 4 28 1 8 9 11 22 8 19 -5 19 -4 7 11 -12 15
-12 17 4 11 14 -6 16 -4 10 7 -7 12 -6 12 7 1 14 -12 16 -10 10 10 -5 21 -4
22 11 9 16 -12 17 -12 10 5 -6 17 -5 18 12 4 17 -14 18 -14 7 7 -11 19 -10 21
6 18 19 -3 78 42 68 52 -3 3 -1 12 5 19 8 10 16 11 29 4 16 -9 18 -7 15 11 -4
21 -4 21 18 3 12 -10 17 -12 10 -5 -6 7 -9 20 -6 28 5 12 7 12 14 1 7 -10 9
-11 9 0 0 7 5 10 10 7 6 -3 10 -1 10 5 0 6 5 8 13 4 9 -6 9 -4 -1 8 -11 14
-10 16 13 14 14 -2 28 1 32 7 3 6 1 7 -5 3 -7 -4 -12 -2 -12 3 0 10 14 15 33
12 4 0 7 5 7 11 0 9 4 8 10 -2 8 -13 10 -12 10 3 0 9 5 17 11 17 5 0 8 4 5 8
-3 5 14 8 37 6 39 -2 40 -2 18 10 -21 12 -22 14 -5 20 10 4 21 1 26 -6 6 -10
8 -10 8 1 0 7 6 11 13 8 8 -3 20 -1 28 5 11 8 10 9 -4 4 -15 -5 -16 -3 -7 14
6 11 13 20 16 20 3 0 2 -4 -1 -10 -3 -5 -2 -10 4 -10 5 0 13 5 16 10 3 6 12
10 18 10 7 0 6 -4 -3 -10 -10 -7 -11 -10 -2 -10 7 0 15 6 18 14 3 8 13 13 22
11 9 -1 28 8 41 21 13 13 27 21 32 18 5 -3 9 0 9 7 0 28 12 -3 14 -34 1 -31
-1 -34 -16 -26 -14 8 -16 6 -11 -7 4 -11 3 -15 -5 -10 -7 4 -10 -1 -7 -15 3
-16 1 -18 -9 -10 -10 9 -17 7 -27 -6 -13 -16 -12 -17 4 -4 27 21 20 1 -9 -26
-16 -14 -24 -31 -21 -42 3 -14 -1 -17 -18 -16 -18 2 -21 -1 -17 -21 3 -17 0
-24 -12 -24 -9 0 -16 -7 -16 -15 0 -8 5 -15 12 -15 6 0 8 -3 5 -6 -4 -4 -13
-1 -22 6 -13 11 -14 10 -9 -4 3 -9 1 -16 -5 -16 -6 0 -11 -5 -11 -11 0 -5 5
-7 12 -3 7 5 8 3 4 -5 -5 -7 -14 -10 -20 -8 -7 3 -18 -4 -25 -15 -9 -15 -9
-18 0 -13 7 5 10 3 7 -6 -3 -8 -12 -13 -21 -13 -15 2 -16 -23 -1 -48 4 -7 3
-8 -4 -4 -8 4 -16 -3 -22 -18 -5 -14 -12 -26 -15 -26 -4 0 -3 6 1 13 5 9 4 9
-5 1 -14 -13 -4 -47 12 -37 6 3 7 1 3 -6 -6 -9 -11 -9 -24 1 -13 11 -15 10 -9
-4 3 -10 3 -17 -1 -17 -19 3 -25 -2 -12 -11 9 -6 10 -10 3 -10 -7 0 -10 -10
-7 -27 3 -20 2 -24 -5 -13 -5 8 -8 17 -5 21 2 4 0 10 -5 13 -5 3 -8 -8 -7 -24
2 -23 -1 -29 -12 -25 -12 4 -13 3 -2 -10 11 -14 7 -19 -12 -16 -4 0 -5 -6 -2
-14 4 -8 11 -12 17 -8 6 3 7 1 3 -6 -6 -9 -11 -9 -21 -1 -10 8 -15 8 -21 -1
-4 -8 -3 -9 4 -5 16 10 15 -7 0 -23 -7 -8 -8 -11 -2 -8 6 3 11 0 11 -8 0 -8
-4 -12 -8 -9 -4 2 -10 0 -14 -6 -3 -5 -1 -10 4 -10 6 0 11 -4 11 -10 0 -5 -6
-7 -14 -4 -18 7 -31 -13 -17 -29 12 -15 -20 -72 -34 -60 -5 5 -3 -1 5 -11 8
-11 10 -17 4 -13 -7 4 -15 0 -18 -9 -3 -8 -2 -12 4 -9 6 3 10 2 10 -4 0 -5 -5
-13 -11 -16 -6 -4 -9 -24 -6 -46 2 -21 0 -36 -5 -33 -4 3 -6 9 -3 14 3 5 2 11
-3 14 -4 2 -9 -5 -10 -17 -4 -40 -8 -56 -15 -63 -4 -4 -7 -12 -7 -18 0 -6 4
-5 9 3 6 9 8 4 8 -17 -1 -18 -6 -28 -14 -25 -8 3 -10 -3 -6 -18 5 -17 3 -20
-7 -14 -9 6 -12 4 -8 -7 4 -8 1 -15 -5 -15 -7 0 -23 -3 -37 -8 -21 -7 -23 -6
-13 6 10 12 8 15 -6 15 -13 0 -17 -6 -14 -21 2 -11 1 -14 -3 -7 -3 6 -11 9
-16 6 -7 -4 -8 -2 -4 4 5 8 0 11 -16 8 -13 -3 -27 -5 -31 -5 -5 -1 -5 -7 -1
-13 6 -10 4 -10 -7 -2 -8 6 -22 10 -31 9 -10 -2 -17 0 -17 3 3 21 -3 23 -23 6
-21 -19 -21 -19 -15 1 7 20 7 20 -8 1 -8 -11 -15 -15 -15 -9 0 6 -9 9 -20 6
-12 -3 -20 0 -20 6 0 7 -5 9 -10 6 -6 -4 -8 -10 -6 -14 3 -4 -6 -7 -19 -7 -13
0 -23 2 -22 6 1 3 -2 5 -8 5 -5 0 -9 -5 -7 -11 1 -7 -2 -15 -7 -18 -5 -3 -8 1
-7 9 0 7 -3 14 -9 15 -5 1 -15 6 -22 11 -7 7 -14 6 -18 -1 -3 -6 -10 -8 -15
-5 -5 3 -13 -3 -19 -12 -6 -11 -11 -13 -11 -5 0 7 -5 10 -12 6 -7 -4 -8 -3 -4
4 4 7 3 12 -3 12 -5 0 -12 -4 -16 -10 -4 -6 -15 -6 -31 0 -16 7 -23 7 -19 0 3
-6 -1 -7 -9 -4 -9 3 -13 11 -9 18 3 6 -4 2 -17 -9 -13 -11 -20 -15 -17 -9 9
15 -31 26 -40 12 -3 -6 -1 -8 5 -4 6 3 14 1 18 -6 4 -7 4 -10 -1 -6 -4 4 -14
0 -21 -10 -12 -16 -12 -16 -11 3 1 11 -2 20 -8 20 -5 0 -15 4 -22 8 -6 4 -15
2 -19 -4 -4 -8 -3 -9 4 -5 7 4 12 3 12 -2 0 -5 -13 -9 -29 -8 -16 0 -29 3 -29
6 1 20 -5 21 -24 4 -21 -19 -21 -19 -15 1 7 20 7 20 -8 1 -10 -13 -15 -15 -15
-6 0 7 -3 10 -6 7 -4 -3 -16 -2 -27 4 -12 7 -17 7 -13 1 10 -17 -22 -22 -35
-6 -12 14 -14 14 -26 -2 -7 -10 -13 -13 -13 -7 0 6 -9 13 -20 16 -11 3 -18 1
-14 -4 3 -5 -2 -6 -10 -3 -15 6 -20 17 -17 37 0 4 -3 7 -8 7 -4 0 -8 15 -7 34
0 19 4 32 9 29 4 -2 7 0 7 6 0 5 -8 11 -17 13 -9 2 -17 13 -18 25 -1 18 1 20
12 11 11 -8 12 -7 7 6 -3 9 -11 16 -16 16 -6 0 -8 9 -5 21 4 15 2 18 -7 10 -8
-7 -12 -5 -12 9 0 10 3 17 6 15 4 -2 7 2 7 10 0 8 -4 12 -9 9 -4 -3 -8 0 -8 6
0 6 -5 8 -12 4 -7 -4 -8 -3 -4 5 4 6 12 8 18 5 6 -4 8 -2 4 4 -3 5 -3 12 1 15
5 2 3 2 -4 1 -19 -4 -44 41 -30 55 8 8 7 11 -3 11 -13 0 -13 2 0 10 13 9 13
10 0 11 -8 1 -18 1 -21 1 -4 -1 -6 7 -6 16 0 35 -3 43 -15 36 -6 -4 -8 -3 -5
4 9 14 -3 43 -14 36 -13 -7 -7 19 6 28 6 5 5 8 -2 8 -7 0 -13 9 -13 20 0 11
-5 20 -10 20 -6 0 -10 6 -8 14 2 8 -6 22 -17 30 -20 16 -20 16 0 9 17 -6 18
-5 5 9 -8 9 -18 14 -22 11 -8 -4 -12 12 -9 36 2 7 -2 10 -8 6 -6 -3 -11 -1
-11 5 0 6 -5 8 -11 4 -7 -4 -7 1 1 16 11 20 10 22 -5 16 -15 -5 -16 -4 -5 9 7
9 10 18 6 22 -3 3 -6 1 -6 -5 0 -7 -4 -12 -9 -12 -6 0 -8 9 -6 19 3 15 -1 18
-12 14 -13 -5 -14 -3 -3 18 7 13 9 21 5 17 -10 -10 -35 17 -35 39 0 15 -2 16
-11 3 -9 -12 -10 -11 -6 8 4 16 1 22 -11 22 -15 0 -15 2 -2 10 13 8 12 10 -2
10 -10 0 -18 -5 -18 -12 0 -6 -3 -8 -6 -5 -4 4 -1 13 6 22 11 14 7 19 -12 16
-4 0 -10 8 -13 19 -4 11 -11 20 -16 20 -5 0 -8 6 -6 13 1 6 -4 11 -12 9 -12
-3 -12 0 -2 12 11 13 10 17 -5 23 -37 14 -60 53 -32 53 6 0 8 3 5 6 -4 4 -13
1 -21 -5 -13 -11 -15 -9 -11 8 2 11 -1 24 -7 27 -6 4 -8 2 -4 -4 3 -6 1 -14
-5 -18 -7 -4 -9 -3 -6 3 4 6 0 14 -9 17 -13 5 -14 9 -4 21 17 20 27 19 42 -5z
m2043 10 c3 -5 2 -10 -4 -10 -5 0 -13 5 -16 10 -3 6 -2 10 4 10 5 0 13 -4 16
-10z m-4155 -144 c0 -2 -7 -7 -16 -10 -8 -3 -12 -2 -9 4 6 10 25 14 25 6z
m1565 -56 c-1 -22 1 -27 10 -20 15 13 17 -19 2 -40 -9 -12 -8 -13 2 -3 11 9
17 9 27 -2 15 -15 19 -29 6 -21 -4 2 -8 -4 -8 -14 0 -10 4 -16 8 -14 4 3 8 -2
8 -11 0 -9 7 -23 15 -31 8 -8 11 -22 8 -31 -5 -12 -3 -14 7 -8 10 6 11 4 4 -6
-15 -24 -14 -41 2 -35 12 5 14 1 9 -15 -5 -16 -4 -19 6 -14 9 6 11 4 6 -7 -3
-9 0 -21 6 -28 9 -10 9 -11 -3 -6 -8 4 -2 -4 13 -18 15 -14 23 -26 16 -26 -6
0 -8 -7 -5 -16 5 -12 2 -15 -9 -10 -9 3 -13 2 -10 -4 3 -6 12 -10 18 -10 7 0
13 -9 14 -20 1 -13 -2 -18 -10 -14 -9 5 -9 4 0 -6 6 -7 9 -19 6 -26 -3 -8 0
-14 7 -14 6 0 8 5 5 10 -3 6 -2 10 4 10 5 0 10 -8 10 -17 0 -49 5 -83 13 -83
4 0 8 -5 8 -11 0 -5 -4 -8 -8 -5 -5 3 -9 -1 -9 -9 0 -8 4 -12 9 -9 4 3 8 -7 8
-21 0 -14 4 -24 9 -20 5 3 13 1 16 -5 4 -6 3 -10 -2 -9 -22 4 -25 -3 -7 -17
19 -15 19 -16 0 -9 -19 6 -19 5 -1 -15 14 -15 15 -20 4 -21 -11 0 -11 -2 -1
-6 10 -4 10 -8 1 -19 -9 -12 -9 -13 3 -9 11 5 16 -1 16 -19 0 -16 -5 -23 -12
-19 -7 4 -6 1 1 -7 10 -11 15 -11 30 1 16 12 17 12 6 -2 -7 -9 -9 -20 -5 -24
4 -5 -2 -5 -12 -1 -20 7 -20 7 0 -15 12 -14 13 -19 4 -14 -12 6 -13 5 -2 -6
15 -16 16 -33 1 -24 -6 4 -5 -3 3 -15 11 -18 11 -23 -7 -33 -21 -12 -84 -18
-83 -8 2 20 -5 22 -24 5 -21 -19 -21 -19 -15 1 7 20 7 20 -8 1 -8 -11 -15 -15
-15 -8 0 6 -9 9 -20 7 -11 -2 -20 2 -20 8 0 7 -5 4 -11 -6 -10 -17 -12 -17
-29 -2 -17 15 -19 15 -29 -2 -6 -10 -11 -13 -11 -7 0 17 -28 25 -36 12 -4 -6
-3 -8 4 -4 6 3 14 1 18 -6 4 -7 4 -10 -1 -6 -4 4 -14 0 -21 -10 -10 -13 -12
-14 -11 -2 1 8 -1 15 -4 15 -3 0 -13 6 -22 13 -12 10 -17 10 -23 1 -4 -8 -3
-9 4 -5 7 4 12 3 12 -2 0 -5 -13 -9 -29 -8 -16 0 -29 3 -29 6 1 20 -5 21 -24
4 -21 -19 -21 -19 -15 1 6 18 5 18 -5 3 -11 -15 -13 -15 -26 0 -7 9 -10 11 -6
3 5 -10 3 -13 -8 -8 -9 3 -21 0 -28 -6 -10 -9 -11 -9 -6 0 3 6 1 15 -5 19 -8
4 -9 3 -5 -4 4 -7 2 -12 -5 -12 -8 0 -8 -5 2 -17 11 -15 11 -16 -1 -6 -11 10
-17 10 -29 0 -12 -10 -13 -9 -6 2 6 11 4 13 -8 8 -9 -3 -19 -2 -23 4 -10 17 3
21 28 9 20 -10 21 -9 6 3 -9 7 -17 22 -16 33 0 10 -2 31 -5 47 -3 15 -2 25 2
22 12 -7 35 22 36 46 1 11 -2 22 -7 25 -5 3 -4 11 2 18 5 7 11 32 12 54 1 23
5 39 10 36 4 -3 8 4 8 15 0 12 6 21 13 21 9 0 8 3 -2 9 -9 6 -10 11 -2 15 6 4
9 12 6 17 -4 5 -1 9 4 9 6 0 10 6 9 13 -2 6 3 11 11 9 12 -3 12 -1 0 14 -11
14 -11 16 0 10 10 -7 12 -3 6 14 -6 17 -4 21 6 14 12 -6 12 -5 0 9 -10 13 -10
17 -1 17 7 0 10 6 7 14 -3 8 3 23 13 34 10 11 16 23 12 26 -3 4 0 11 8 16 13
9 13 10 0 10 -9 1 -6 5 7 10 16 7 20 14 16 31 -5 17 -3 20 8 14 8 -5 11 -4 6
0 -4 5 1 17 10 28 13 14 14 18 3 12 -21 -13 -41 -15 -34 -4 3 5 10 6 16 3 7
-5 9 -2 5 8 -4 12 0 15 16 12 12 -2 16 -1 9 2 -10 5 -10 9 -1 20 9 11 8 14 -2
14 -8 0 -3 6 10 13 17 8 25 21 26 42 2 36 13 58 25 50 5 -3 12 0 16 6 4 8 3 9
-4 5 -7 -4 -12 -2 -12 3 0 6 5 11 11 11 6 0 8 8 4 19 -4 14 0 21 15 26 17 5
26 28 21 57 0 4 5 5 12 2 8 -3 13 -18 12 -34z m3105 20 c8 -5 12 -11 10 -14
-3 -2 -14 2 -24 10 -22 15 -10 19 14 4z m64 -86 c3 -8 2 -12 -4 -9 -6 3 -10
10 -10 16 0 14 7 11 14 -7z m-1173 -57 l-24 -22 19 27 c10 14 21 24 23 22 3
-3 -6 -15 -18 -27z m1219 -23 c0 -8 -19 -13 -24 -6 -3 5 1 9 9 9 8 0 15 -2 15
-3z m-3320 -20 c0 -8 -19 -13 -24 -6 -3 5 1 9 9 9 8 0 15 -2 15 -3z m-76 -152
c3 -5 -1 -9 -9 -9 -8 0 -12 4 -9 9 3 4 7 8 9 8 2 0 6 -4 9 -8z m3151 -4 c5 4
5 1 1 -6 -6 -10 -11 -10 -22 -1 -8 6 -14 14 -14 16 0 3 6 0 13 -6 8 -6 18 -7
22 -3z m-2115 -12 c0 -3 -4 -8 -10 -11 -5 -3 -10 -1 -10 4 0 6 5 11 10 11 6 0
10 -2 10 -4z m2470 -86 c0 -5 -2 -10 -4 -10 -3 0 -8 5 -11 10 -3 6 -1 10 4 10
6 0 11 -4 11 -10z m981 -53 c-6 -8 -7 -18 -3 -22 4 -5 1 -5 -6 -1 -10 6 -10
11 -1 22 6 8 14 14 16 14 3 0 0 -6 -6 -13z m-1407 -102 c-4 -8 -11 -15 -16
-15 -6 0 -5 6 2 15 7 8 14 15 16 15 2 0 1 -7 -2 -15z m1621 -73 c-3 -3 -11 0
-18 7 -9 10 -8 11 6 5 10 -3 15 -9 12 -12z m280 -1 c3 -5 2 -12 -3 -15 -5 -3
-9 1 -9 9 0 17 3 19 12 6z m-5994 -45 c-9 -11 -9 -15 1 -18 8 -3 7 -6 -4 -10
-9 -4 -15 -2 -14 5 2 15 16 37 23 37 3 0 0 -6 -6 -14z m868 -73 c-9 -9 -8 -13
0 -13 7 0 9 -4 6 -10 -11 -17 -21 -11 -21 13 0 13 6 24 13 24 9 0 10 -4 2 -14z
m3752 -6 c-10 -9 -11 -8 -5 6 3 10 9 15 12 12 3 -3 0 -11 -7 -18z m-3601 -157
c-6 -11 -13 -20 -16 -20 -2 0 0 9 6 20 6 11 13 20 16 20 2 0 0 -9 -6 -20z
m185 10 c3 -5 1 -10 -4 -10 -6 0 -11 5 -11 10 0 6 2 10 4 10 3 0 8 -4 11 -10z
m135 -10 c-6 -11 -13 -20 -16 -20 -2 0 0 9 6 20 6 11 13 20 16 20 2 0 0 -9 -6
-20z m985 10 c3 -5 1 -10 -4 -10 -6 0 -11 5 -11 10 0 6 2 10 4 10 3 0 8 -4 11
-10z m135 -10 c-6 -11 -13 -20 -16 -20 -2 0 0 9 6 20 6 11 13 20 16 20 2 0 0
-9 -6 -20z m350 10 c0 -5 -5 -10 -11 -10 -5 0 -7 5 -4 10 3 6 8 10 11 10 2 0
4 -4 4 -10z m210 -10 c-6 -11 -13 -20 -16 -20 -2 0 0 9 6 20 6 11 13 20 16 20
2 0 0 -9 -6 -20z m1010 -12 c0 -19 -16 -5 -17 14 -2 18 0 20 7 8 5 -8 10 -18
10 -22z m-1393 0 c-3 -8 -6 -5 -6 6 -1 11 2 17 5 13 3 -3 4 -12 1 -19z m-1687
8 c0 -3 -4 -8 -10 -11 -5 -3 -10 -1 -10 4 0 6 5 11 10 11 6 0 10 -2 10 -4z
m2000 0 c0 -2 -7 -7 -16 -10 -8 -3 -12 -2 -9 4 6 10 25 14 25 6z m1212 -254
c3 -10 0 -19 -6 -19 -6 0 -11 10 -11 23 0 25 10 23 17 -4z m-4008 -38 c3 -8 2
-12 -4 -9 -6 3 -10 10 -10 16 0 14 7 11 14 -7z m253 -389 c0 -8 -4 -15 -9 -15
-10 0 -11 14 -1 23 9 10 10 9 10 -8z m43 -55 c0 -5 -2 -10 -4 -10 -3 0 -8 5
-11 10 -3 6 -1 10 4 10 6 0 11 -4 11 -10z m3734 -8 c3 -5 -1 -9 -9 -9 -8 0
-12 4 -9 9 3 4 7 8 9 8 2 0 6 -4 9 -8z m51 -51 c3 -5 2 -12 -3 -15 -5 -3 -9 1
-9 9 0 17 3 19 12 6z m80 -100 c3 -5 2 -12 -3 -15 -5 -3 -9 1 -9 9 0 17 3 19
12 6z m79 -117 c3 -8 2 -12 -4 -9 -6 3 -10 10 -10 16 0 14 7 11 14 -7z m-3437
-1951 c-4 -3 -2 -12 4 -19 7 -8 6 -14 -2 -20 -7 -4 -9 -3 -5 4 3 6 2 13 -4 17
-10 6 -5 25 7 25 4 0 3 -3 0 -7z m3433 -257 c0 -3 -4 -8 -10 -11 -5 -3 -10 -1
-10 4 0 6 5 11 10 11 6 0 10 -2 10 -4z m-2836 -482 c3 -8 2 -12 -4 -9 -6 3
-10 10 -10 16 0 14 7 11 14 -7z m160 -110 c3 -8 2 -12 -4 -9 -6 3 -10 10 -10
16 0 14 7 11 14 -7z m236 -110 c0 -8 -19 -13 -24 -6 -3 5 1 9 9 9 8 0 15 -2
15 -3z"/>
<path d="M2465 5371 c-3 -6 3 -9 14 -8 11 0 17 5 15 9 -7 11 -22 10 -29 -1z"/>
<path d="M4467 5351 c-10 -14 -10 -14 4 -4 9 7 18 10 21 7 3 -3 8 -1 12 4 9
16 -24 9 -37 -7z"/>
<path d="M3191 4906 c2 -2 15 -9 29 -15 24 -11 24 -11 6 3 -16 13 -49 24 -35
12z"/>
<path d="M2856 4761 c-3 -4 1 -17 10 -27 14 -18 15 -18 5 2 -6 12 -7 24 -4 28
3 3 4 6 0 6 -3 0 -8 -4 -11 -9z"/>
<path d="M3660 4745 c-7 -9 -8 -15 -2 -15 5 0 12 7 16 15 3 8 4 15 2 15 -2 0
-9 -7 -16 -15z"/>
<path d="M2885 4680 c-3 -5 -1 -10 4 -10 6 0 11 5 11 10 0 6 -2 10 -4 10 -3 0
-8 -4 -11 -10z"/>
<path d="M3626 4614 c-4 -9 -4 -19 -1 -22 3 -3 5 0 5 7 0 7 4 9 10 6 6 -3 7 1
4 9 -8 20 -10 20 -18 0z"/>
<path d="M2900 4606 c0 -2 8 -10 18 -17 15 -13 16 -12 3 4 -13 16 -21 21 -21
13z"/>
<path d="M2983 4335 c0 -8 4 -12 8 -9 4 2 10 -2 12 -8 4 -8 6 -9 6 -2 1 6 -5
17 -12 23 -10 8 -14 7 -14 -4z"/>
<path d="M1910 5139 c0 -5 5 -7 10 -4 6 3 10 8 10 11 0 2 -4 4 -10 4 -5 0 -10
-5 -10 -11z"/>
<path d="M1865 5060 c-3 -6 1 -7 9 -4 18 7 21 14 7 14 -6 0 -13 -4 -16 -10z"/>
<path d="M2060 4842 c0 -5 7 -9 15 -9 8 0 12 4 9 9 -3 4 -9 8 -15 8 -5 0 -9
-4 -9 -8z"/>
<path d="M1745 4769 c-4 -6 -5 -12 -2 -15 2 -3 7 2 10 11 7 17 1 20 -8 4z"/>
<path d="M2156 4272 c-3 -5 1 -9 9 -9 8 0 12 4 9 9 -3 4 -7 8 -9 8 -2 0 -6 -4
-9 -8z"/>
<path d="M4532 6799 c-13 -16 -20 -29 -15 -29 9 1 47 50 41 54 -1 2 -13 -10
-26 -25z"/>
<path d="M4826 6818 c3 -5 10 -6 15 -3 13 9 11 12 -6 12 -8 0 -12 -4 -9 -9z"/>
<path d="M4384 6639 c1 -7 10 -13 19 -15 9 -1 15 2 11 7 -3 5 -9 7 -14 4 -4
-3 -11 0 -13 5 -3 6 -4 5 -3 -1z"/>
<path d="M4567 6619 c7 -7 15 -10 18 -7 3 3 -2 9 -12 12 -14 6 -15 5 -6 -5z"/>
<path d="M3210 6605 c0 -8 2 -15 4 -15 2 0 6 7 10 15 3 8 1 15 -4 15 -6 0 -10
-7 -10 -15z"/>
<path d="M4530 6609 c0 -5 5 -7 10 -4 6 3 10 8 10 11 0 2 -4 4 -10 4 -5 0 -10
-5 -10 -11z"/>
<path d="M3250 6601 c0 -6 4 -13 10 -16 6 -3 7 1 4 9 -7 18 -14 21 -14 7z"/>
<path d="M1110 6429 c0 -5 5 -7 10 -4 6 3 10 8 10 11 0 2 -4 4 -10 4 -5 0 -10
-5 -10 -11z"/>
<path d="M1366 6418 c3 -5 10 -6 15 -3 13 9 11 12 -6 12 -8 0 -12 -4 -9 -9z"/>
<path d="M3545 6411 c-3 -5 -2 -12 3 -15 5 -3 9 1 9 9 0 17 -3 19 -12 6z"/>
<path d="M5480 6400 c-9 -6 -10 -10 -3 -10 6 0 15 5 18 10 8 12 4 12 -15 0z"/>
<path d="M596 6247 c3 -10 9 -15 12 -12 3 3 0 11 -7 18 -10 9 -11 8 -5 -6z"/>
<path d="M3786 6247 c3 -10 9 -15 12 -12 3 3 0 11 -7 18 -10 9 -11 8 -5 -6z"/>
<path d="M3185 6229 c-4 -6 -5 -12 -2 -15 2 -3 7 2 10 11 7 17 1 20 -8 4z"/>
<path d="M440 6100 c-6 -11 -8 -20 -6 -20 3 0 10 9 16 20 6 11 8 20 6 20 -3 0
-10 -9 -16 -20z"/>
<path d="M6606 6047 c3 -10 9 -15 12 -12 3 3 0 11 -7 18 -10 9 -11 8 -5 -6z"/>
<path d="M6685 5860 c-3 -5 -1 -10 4 -10 6 0 11 5 11 10 0 6 -2 10 -4 10 -3 0
-8 -4 -11 -10z"/>
<path d="M421 5783 c6 -7 17 -13 23 -12 7 0 6 2 -2 6 -6 2 -10 8 -8 12 3 4 -1
8 -9 8 -11 0 -12 -4 -4 -14z"/>
<path d="M595 5790 c-3 -5 -1 -10 4 -10 6 0 11 5 11 10 0 6 -2 10 -4 10 -3 0
-8 -4 -11 -10z"/>
<path d="M6380 5790 c-9 -6 -10 -10 -3 -10 6 0 15 5 18 10 8 12 4 12 -15 0z"/>
<path d="M6404 5779 c-19 -22 -19 -22 4 -8 12 8 22 17 22 21 0 12 -6 9 -26
-13z"/>
<path d="M244 4888 c-4 -6 -3 -8 4 -4 5 3 12 1 14 -6 3 -8 6 -9 11 -1 4 6 0
13 -8 17 -8 3 -17 0 -21 -6z"/>
<path d="M6295 4720 c-4 -6 -2 -9 4 -8 6 2 22 -10 37 -27 l26 -30 -22 32 c-25
39 -36 47 -45 33z"/>
<path d="M221 4564 c0 -11 3 -14 6 -6 3 7 2 16 -1 19 -3 4 -6 -2 -5 -13z"/>
<path d="M5330 4525 c0 -8 2 -15 4 -15 2 0 6 7 10 15 3 8 1 15 -4 15 -6 0 -10
-7 -10 -15z"/>
<path d="M740 4419 c0 -5 5 -7 10 -4 6 3 10 8 10 11 0 2 -4 4 -10 4 -5 0 -10
-5 -10 -11z"/>
<path d="M6580 4319 c0 -5 5 -7 10 -4 6 3 10 8 10 11 0 2 -4 4 -10 4 -5 0 -10
-5 -10 -11z"/>
<path d="M270 4316 c0 -2 7 -7 16 -10 8 -3 12 -2 9 4 -6 10 -25 14 -25 6z"/>
<path d="M6203 4245 c0 -8 4 -12 9 -9 5 3 6 10 3 15 -9 13 -12 11 -12 -6z"/>
<path d="M6186 4172 c-3 -5 1 -9 9 -9 8 0 12 4 9 9 -3 4 -7 8 -9 8 -2 0 -6 -4
-9 -8z"/>
<path d="M6042 3847 c-26 -27 -28 -39 -7 -31 8 4 12 10 9 15 -3 5 -1 9 4 9 6
0 12 7 16 15 7 21 3 19 -22 -8z"/>
<path d="M5796 3502 c-3 -5 1 -9 9 -9 8 0 12 4 9 9 -3 4 -7 8 -9 8 -2 0 -6 -4
-9 -8z"/>
<path d="M1394 3119 c0 -20 11 -25 20 -10 3 5 0 13 -7 19 -10 8 -13 6 -13 -9z"/>
<path d="M1394 2959 c0 -20 11 -25 20 -10 3 5 0 13 -7 19 -10 8 -13 6 -13 -9z"/>
<path d="M1394 2799 c0 -20 11 -25 20 -10 3 5 0 13 -7 19 -10 8 -13 6 -13 -9z"/>
<path d="M5585 2691 c-3 -5 -1 -12 4 -15 5 -3 11 1 15 9 6 16 -9 21 -19 6z"/>
<path d="M1394 2639 c0 -20 11 -25 20 -10 3 5 0 13 -7 19 -10 8 -13 6 -13 -9z"/>
<path d="M1394 2479 c0 -20 11 -25 20 -10 3 5 0 13 -7 19 -10 8 -13 6 -13 -9z"/>
<path d="M1394 2319 c0 -20 11 -25 20 -10 3 5 0 13 -7 19 -10 8 -13 6 -13 -9z"/>
<path d="M1555 1660 c3 -5 8 -10 11 -10 2 0 4 5 4 10 0 6 -5 10 -11 10 -5 0
-7 -4 -4 -10z"/>
<path d="M1590 1540 c0 -5 5 -10 11 -10 5 0 7 5 4 10 -3 6 -8 10 -11 10 -2 0
-4 -4 -4 -10z"/>
<path d="M1615 1450 c-3 -6 1 -7 9 -4 18 7 21 14 7 14 -6 0 -13 -4 -16 -10z"/>
<path d="M5305 1300 c-3 -6 1 -7 9 -4 18 7 21 14 7 14 -6 0 -13 -4 -16 -10z"/>
<path d="M4815 640 c-3 -5 -1 -10 4 -10 6 0 11 5 11 10 0 6 -2 10 -4 10 -3 0
-8 -4 -11 -10z"/>
<path d="M2176 632 c-3 -5 1 -9 9 -9 8 0 12 4 9 9 -3 4 -7 8 -9 8 -2 0 -6 -4
-9 -8z"/>
<path d="M4596 481 c-4 -5 -2 -12 3 -15 5 -4 12 -2 15 3 4 5 2 12 -3 15 -5 4
-12 2 -15 -3z"/>
<path d="M2775 270 c-3 -5 -1 -10 4 -10 6 0 11 5 11 10 0 6 -2 10 -4 10 -3 0
-8 -4 -11 -10z"/>
<path d="M2890 236 c0 -2 7 -7 16 -10 8 -3 12 -2 9 4 -6 10 -25 14 -25 6z"/>
</g>
</svg>
